<svg width="19" height="19" viewBox="0 0 19 19" fill="none" xmlns="http://www.w3.org/2000/svg">
<path d="M9.5 1.4646C9.28625 1.4646 9.06458 1.52002 8.8825 1.62293L2.9925 5.0271C2.6125 5.24877 2.375 5.66043 2.375 6.10377V12.8963C2.375 13.3396 2.6125 13.7513 2.9925 13.9729L4.53625 14.8596C5.28833 15.2238 5.54167 15.2317 5.89 15.2317C6.99833 15.2317 7.63958 14.5588 7.63958 13.3871V6.68168C7.63958 6.58668 7.56042 6.50752 7.46542 6.50752H6.72917C6.62625 6.50752 6.54708 6.58668 6.54708 6.68168V13.3871C6.54708 13.9096 6.00875 14.4242 5.14583 13.9888L3.52292 13.0625C3.4675 13.0229 3.43583 12.9596 3.43583 12.8963V6.10377C3.43583 6.03252 3.4675 5.96918 3.52292 5.93752L9.41292 2.54127C9.46042 2.5096 9.53958 2.5096 9.58708 2.54127L15.4771 5.93752C15.5325 5.96918 15.5642 6.03252 15.5642 6.10377V12.8963C15.5642 12.9596 15.5325 13.0229 15.4771 13.0625L9.58708 16.4588C9.53958 16.4904 9.46042 16.4904 9.405 16.4588L7.91667 15.5563C7.85333 15.5325 7.79 15.5246 7.75042 15.5483C7.33083 15.7858 7.25167 15.8333 6.86375 15.9521C6.76875 15.9838 6.61833 16.0392 6.91917 16.2054L8.8825 17.3692C9.0725 17.48 9.27833 17.5354 9.5 17.5354C9.72167 17.5354 9.9275 17.48 10.1175 17.3692L16.0075 13.9729C16.3875 13.7513 16.625 13.3396 16.625 12.8963V6.10377C16.625 5.66043 16.3875 5.24877 16.0075 5.0271L10.1175 1.62293C9.93542 1.52002 9.72167 1.4646 9.5 1.4646ZM11.0833 6.33335C9.405 6.33335 8.39958 7.03793 8.39958 8.22543C8.39958 9.50002 9.39708 9.8721 11.0121 10.0304C12.9358 10.2204 13.0863 10.5054 13.0863 10.8854C13.0863 11.5425 12.5558 11.8196 11.3208 11.8196C9.75333 11.8196 9.42083 11.4317 9.30208 10.6558C9.28625 10.5767 9.215 10.5133 9.12792 10.5133H8.36792C8.27292 10.5133 8.20167 10.5846 8.20167 10.6875C8.20167 11.6692 8.74 12.8567 11.3208 12.8567C13.1813 12.8567 14.25 12.1204 14.25 10.8379C14.25 9.56335 13.395 9.23085 11.5821 8.98543C9.75333 8.74793 9.57125 8.62127 9.57125 8.19377C9.57125 7.83752 9.72958 7.36252 11.0833 7.36252C12.2708 7.36252 12.7379 7.62377 12.92 8.43918C12.9358 8.51835 13.0071 8.57377 13.0863 8.57377H13.8542C13.8938 8.57377 13.9412 8.55793 13.9729 8.51835C14.0046 8.48668 14.0283 8.43918 14.0125 8.39168C13.9017 6.98252 12.9675 6.33335 11.0833 6.33335Z" fill="#449C47"/>
</svg>
