<svg width="411" height="399" viewBox="0 0 411 399" fill="none" xmlns="http://www.w3.org/2000/svg">
<g clip-path="url(#clip0_339254_88)">
<path d="M288.434 397.653C288.004 398.106 287.557 398.553 287.104 399H235.493C235.069 398.564 234.65 398.117 234.231 397.653C234.215 397.636 234.197 397.614 234.181 397.597C228.573 391.383 225.043 382.352 222.842 372.829C222.701 372.252 222.576 371.669 222.452 371.08C221.875 368.404 221.405 365.699 221.021 363.017C220.953 362.553 220.885 362.089 220.828 361.625C220.307 357.771 219.957 353.98 219.73 350.421C219.702 349.962 219.674 349.515 219.646 349.068C219.231 341.982 219.227 334.878 219.634 327.792C219.634 327.792 219.702 327.792 219.832 327.798C220.211 327.815 221.122 327.854 222.463 327.933C226.158 328.16 233.128 328.726 241.326 330.061C241.773 330.135 242.226 330.214 242.679 330.293C249.613 331.439 256.453 333.096 263.143 335.25C263.562 335.391 263.975 335.533 264.394 335.674L264.399 335.703L269.531 361.455L271.658 338.532C273.35 339.296 274.996 340.111 276.575 340.982C277.016 341.226 277.446 341.469 277.871 341.718C281.479 343.763 284.755 346.347 287.585 349.38C304.417 368.036 300.813 384.712 288.434 397.653Z" fill="#F2F2F2"/>
<path d="M266.866 364.999L267.76 365.99C278.103 377.566 284.275 388.312 286.176 398.085C286.207 398.227 286.227 398.369 286.258 398.511L285.596 398.636L284.958 398.748C283.017 388.093 275.792 377.078 266.774 366.979C266.486 366.65 266.194 366.317 265.893 365.993C262.037 361.751 257.892 357.682 253.701 353.877C253.379 353.58 253.048 353.282 252.717 352.984C247.159 347.99 241.567 343.473 236.58 339.665C236.229 339.394 235.873 339.128 235.521 338.866C227.054 332.455 220.484 328.206 219.02 327.274C218.844 327.158 218.744 327.096 218.721 327.081L219.068 326.528L219.068 326.519L219.42 325.961C219.442 325.976 219.778 326.18 220.385 326.577C222.664 328.046 228.791 332.09 236.412 337.84C236.754 338.101 237.11 338.367 237.461 338.638C241.512 341.724 245.941 345.26 250.415 349.131C251.54 350.101 252.637 351.07 253.706 352.037C254.042 352.331 254.373 352.629 254.695 352.926C259.227 357.038 263.283 361.063 266.866 364.999Z" fill="white"/>
<path d="M241.813 328.963C241.66 329.331 241.496 329.699 241.326 330.061C240.034 332.858 238.381 335.474 236.41 337.842C236.121 338.181 235.827 338.526 235.521 338.866C234.695 339.777 233.817 340.658 232.885 341.509C229.073 344.96 224.555 347.54 219.645 349.068C219.487 349.119 219.334 349.17 219.176 349.216C219.204 349.663 219.232 350.104 219.261 350.562C219.419 350.517 219.572 350.472 219.73 350.421C224.94 348.85 229.734 346.14 233.767 342.487C234.754 341.596 235.692 340.654 236.58 339.664C236.885 339.33 237.179 338.985 237.462 338.64C239.57 336.106 241.325 333.298 242.679 330.293C242.837 329.931 242.995 329.569 243.148 329.201C242.696 329.122 242.249 329.043 241.813 328.963Z" fill="white"/>
<path d="M263.375 334.249C263.307 334.582 263.228 334.916 263.143 335.25C261.609 341.611 258.343 347.423 253.706 352.039C253.383 352.362 253.055 352.679 252.716 352.984C252.619 353.08 252.512 353.182 252.41 353.273C248.192 357.081 243.125 359.826 237.632 361.279C232.138 362.732 226.377 362.85 220.828 361.625C220.698 361.602 220.562 361.568 220.432 361.54C220.5 362.004 220.562 362.474 220.636 362.938C220.766 362.966 220.89 362.994 221.02 363.017C226.71 364.194 232.597 364.014 238.204 362.491C243.811 360.968 248.98 358.146 253.293 354.252C253.429 354.127 253.57 354.008 253.7 353.878C254.04 353.561 254.368 353.244 254.696 352.928C259.441 348.179 262.797 342.222 264.399 335.703C264.484 335.363 264.563 335.024 264.637 334.684C264.218 334.537 263.799 334.39 263.375 334.249Z" fill="white"/>
<path d="M276.575 340.026C276.58 340.343 276.58 340.665 276.575 340.982C276.48 349.925 273.013 358.502 266.866 364.997C266.549 365.337 266.221 365.665 265.893 365.993C265.536 366.339 265.18 366.684 264.812 367.012C259.12 372.142 251.931 375.307 244.304 376.04C236.676 376.772 229.016 375.034 222.452 371.08C222.339 371.022 222.23 370.958 222.124 370.888C222.259 371.488 222.395 372.076 222.542 372.665C222.644 372.721 222.74 372.778 222.842 372.829C229.596 376.595 237.359 378.155 245.044 377.288C252.728 376.422 259.949 373.173 265.695 367.996C266.063 367.663 266.43 367.329 266.775 366.978C267.115 366.655 267.437 366.327 267.76 365.988C273.994 359.413 277.592 350.775 277.871 341.718C277.882 341.412 277.888 341.107 277.887 340.801C277.458 340.535 277.016 340.281 276.575 340.026Z" fill="white"/>
<path d="M162.193 93.6942H62.7354C61.9078 93.6933 61.1143 93.3641 60.529 92.7788C59.9438 92.1934 59.6146 91.3998 59.6136 90.5721V15.0437C59.6146 14.2159 59.9437 13.4223 60.529 12.8369C61.1142 12.2515 61.9077 11.9222 62.7354 11.9213H184.814C185.642 11.9222 186.435 12.2515 187.02 12.8369C187.606 13.4223 187.935 14.2159 187.936 15.0437V67.9476C187.928 74.7736 185.213 81.3179 180.387 86.1447C175.561 90.9715 169.018 93.6865 162.193 93.6942Z" fill="white"/>
<path d="M162.193 93.9771H62.7354C61.8328 93.9761 60.9674 93.617 60.3291 92.9786C59.6909 92.3403 59.3318 91.4748 59.3307 90.572V15.0437C59.3318 14.1409 59.6908 13.2753 60.329 12.6369C60.9673 11.9985 61.8327 11.6394 62.7354 11.6383H184.814C185.717 11.6393 186.582 11.9985 187.22 12.6369C187.859 13.2753 188.218 14.1409 188.219 15.0437V67.9475C188.211 74.8486 185.466 81.4648 180.587 86.3446C175.708 91.2244 169.093 93.9693 162.193 93.9771V93.9771ZM62.7354 12.77C62.1327 12.7708 61.5549 13.0106 61.1288 13.4368C60.7027 13.863 60.463 14.4409 60.4623 15.0437V90.572C60.463 91.1748 60.7027 91.7526 61.1288 92.1788C61.555 92.605 62.1328 92.8447 62.7354 92.8454H162.193C168.793 92.838 175.12 90.2124 179.787 85.5448C184.454 80.8771 187.08 74.5486 187.087 67.9475V15.0437C187.086 14.4409 186.847 13.863 186.421 13.4368C185.995 13.0106 185.417 12.7708 184.814 12.77H62.7354Z" fill="#CCCCCC"/>
<path d="M160.682 37.4286H86.8673C86.1896 37.4286 85.5397 37.1593 85.0605 36.6801C84.5813 36.2008 84.3121 35.5509 84.3121 34.8731C84.3121 34.1953 84.5813 33.5453 85.0605 33.0661C85.5397 32.5869 86.1896 32.3176 86.8673 32.3176H160.682C161.359 32.3186 162.008 32.5883 162.487 33.0675C162.965 33.5466 163.234 34.196 163.234 34.8731C163.234 35.5502 162.965 36.1996 162.487 36.6787C162.008 37.1579 161.359 37.4276 160.682 37.4286V37.4286Z" fill="#CCCCCC"/>
<path d="M160.682 55.0329H86.8673C86.1896 55.0329 85.5397 54.7637 85.0605 54.2845C84.5813 53.8052 84.3121 53.1552 84.3121 52.4775C84.3121 51.7997 84.5813 51.1497 85.0605 50.6705C85.5397 50.1912 86.1896 49.922 86.8673 49.922H160.682C161.36 49.922 162.01 50.1912 162.489 50.6705C162.968 51.1497 163.237 51.7997 163.237 52.4775C163.237 53.1552 162.968 53.8052 162.489 54.2845C162.01 54.7637 161.36 55.0329 160.682 55.0329Z" fill="#CCCCCC"/>
<path d="M160.682 73.1405H86.8673C86.1896 73.1405 85.5397 72.8712 85.0605 72.392C84.5813 71.9128 84.3121 71.2628 84.3121 70.585C84.3121 69.9073 84.5813 69.2573 85.0605 68.778C85.5397 68.2988 86.1896 68.0295 86.8673 68.0295H160.682C161.36 68.0295 162.01 68.2988 162.489 68.778C162.968 69.2573 163.237 69.9073 163.237 70.585C163.237 71.2628 162.968 71.9128 162.489 72.392C162.01 72.8712 161.36 73.1405 160.682 73.1405Z" fill="#CCCCCC"/>
<path d="M183.897 30.5209C192.324 30.5209 199.156 23.6885 199.156 15.2604C199.156 6.83232 192.324 0 183.897 0C175.47 0 168.639 6.83232 168.639 15.2604C168.639 23.6885 175.47 30.5209 183.897 30.5209Z" fill="#6C63FF"/>
<path d="M181.816 23.2027C181.552 23.2027 181.293 23.1413 181.057 23.0235C180.821 22.9056 180.616 22.7344 180.458 22.5236L176.295 16.9724C176.162 16.7941 176.064 16.5912 176.009 16.3752C175.954 16.1593 175.942 15.9346 175.973 15.7139C176.005 15.4932 176.079 15.2809 176.193 15.0891C176.306 14.8973 176.457 14.7297 176.635 14.596C176.813 14.4623 177.016 14.3649 177.232 14.3096C177.448 14.2543 177.673 14.2421 177.893 14.2736C178.114 14.3051 178.326 14.3798 178.518 14.4934C178.71 14.607 178.877 14.7572 179.011 14.9356L181.735 18.567L188.729 8.07367C188.979 7.69907 189.367 7.43902 189.809 7.35072C190.25 7.26243 190.708 7.35312 191.083 7.60286C191.458 7.85259 191.718 8.24091 191.806 8.68238C191.894 9.12386 191.803 9.58232 191.554 9.95693L183.228 22.4468C183.078 22.6726 182.875 22.8591 182.638 22.9906C182.4 23.122 182.135 23.1946 181.863 23.2022C181.847 23.2025 181.832 23.2027 181.816 23.2027Z" fill="white"/>
<path d="M125.483 159.294H26.0262C19.201 159.286 12.6576 156.571 7.83143 151.744C3.0053 146.918 0.290598 140.373 0.282898 133.547V80.6432C0.28387 79.8154 0.613113 79.0217 1.1984 78.4364C1.78368 77.851 2.57722 77.5217 3.40494 77.5208H125.483C126.311 77.5217 127.105 77.851 127.69 78.4364C128.275 79.0217 128.604 79.8154 128.605 80.6432V156.172C128.604 156.999 128.275 157.793 127.69 158.378C127.105 158.964 126.311 159.293 125.483 159.294V159.294Z" fill="white"/>
<path d="M125.483 159.577H26.0262C19.126 159.569 12.5107 156.824 7.63155 151.944C2.7524 147.065 0.00784529 140.448 0 133.547V80.6432C0.00102278 79.7403 0.360086 78.8748 0.998414 78.2363C1.63674 77.5979 2.50221 77.2388 3.40494 77.2378H125.483C126.386 77.2388 127.251 77.5979 127.89 78.2363C128.528 78.8748 128.887 79.7403 128.888 80.6432V156.172C128.887 157.074 128.528 157.94 127.89 158.578C127.251 159.217 126.386 159.576 125.483 159.577ZM3.40494 78.3695C2.80223 78.3702 2.22441 78.61 1.79823 79.0363C1.37205 79.4625 1.1323 80.0404 1.13157 80.6432V133.547C1.13903 140.148 3.76424 146.477 8.43127 151.145C13.0983 155.812 19.426 158.438 26.0262 158.445H125.483C126.086 158.444 126.664 158.205 127.09 157.778C127.516 157.352 127.756 156.774 127.757 156.172V80.6432C127.756 80.0404 127.516 79.4625 127.09 79.0363C126.664 78.61 126.086 78.3702 125.483 78.3695H3.40494Z" fill="#CCCCCC"/>
<path d="M101.352 103.028H27.5366C26.859 103.028 26.2091 102.759 25.7299 102.28C25.2507 101.8 24.9815 101.15 24.9815 100.473C24.9815 99.795 25.2507 99.145 25.7299 98.6657C26.2091 98.1865 26.859 97.9172 27.5366 97.9172H101.352C102.029 97.9172 102.679 98.1865 103.158 98.6657C103.638 99.145 103.907 99.795 103.907 100.473C103.907 101.15 103.638 101.8 103.158 102.28C102.679 102.759 102.029 103.028 101.352 103.028Z" fill="#CCCCCC"/>
<path d="M101.352 120.632H27.5366C26.859 120.632 26.2091 120.363 25.7299 119.884C25.2507 119.405 24.9815 118.755 24.9815 118.077C24.9815 117.399 25.2507 116.749 25.7299 116.27C26.2091 115.791 26.859 115.521 27.5366 115.521H101.352C102.029 115.521 102.679 115.791 103.158 116.27C103.638 116.749 103.907 117.399 103.907 118.077C103.907 118.755 103.638 119.405 103.158 119.884C102.679 120.363 102.029 120.632 101.352 120.632Z" fill="#CCCCCC"/>
<path d="M101.352 138.74H27.5366C26.859 138.74 26.2091 138.471 25.7299 137.991C25.2507 137.512 24.9815 136.862 24.9815 136.185C24.9815 135.507 25.2507 134.857 25.7299 134.378C26.2091 133.898 26.859 133.629 27.5366 133.629H101.352C102.029 133.629 102.679 133.898 103.158 134.378C103.638 134.857 103.907 135.507 103.907 136.185C103.907 136.862 103.638 137.512 103.158 137.991C102.679 138.471 102.029 138.74 101.352 138.74Z" fill="#CCCCCC"/>
<path d="M125.622 96.7265C134.048 96.7265 140.88 89.8942 140.88 81.4661C140.88 73.038 134.048 66.2057 125.622 66.2057C117.195 66.2057 110.363 73.038 110.363 81.4661C110.363 89.8942 117.195 96.7265 125.622 96.7265Z" fill="#6C63FF"/>
<path d="M123.54 89.4085C123.276 89.4085 123.017 89.3472 122.781 89.2293C122.545 89.1114 122.34 88.9402 122.182 88.7294L118.02 83.1783C117.886 82.9999 117.789 82.797 117.733 82.581C117.678 82.3651 117.666 82.1404 117.697 81.9197C117.729 81.699 117.803 81.4867 117.917 81.2949C118.031 81.1031 118.181 80.9355 118.359 80.8018C118.537 80.6681 118.74 80.5708 118.956 80.5154C119.172 80.4601 119.397 80.4479 119.617 80.4794C119.838 80.5109 120.05 80.5856 120.242 80.6992C120.434 80.8128 120.601 80.963 120.735 81.1414L123.459 84.7728L130.453 74.2795C130.703 73.9049 131.091 73.6448 131.533 73.5565C131.974 73.4682 132.433 73.5589 132.807 73.8087C133.182 74.0584 133.442 74.4467 133.53 74.8882C133.618 75.3297 133.528 75.7881 133.278 76.1627L124.952 88.6526C124.802 88.8785 124.599 89.0649 124.362 89.1964C124.124 89.3278 123.859 89.4004 123.587 89.408C123.571 89.4083 123.556 89.4085 123.54 89.4085Z" fill="white"/>
<path d="M249.404 229.695H110.241C103.416 229.687 96.8727 226.972 92.0466 222.145C87.2205 217.318 84.5057 210.774 84.498 203.948V126.134C84.4993 125.067 84.9237 124.044 85.6781 123.29C86.4325 122.535 87.4554 122.111 88.5224 122.109H249.404C250.471 122.111 251.494 122.535 252.248 123.29C253.003 124.044 253.427 125.067 253.428 126.134V225.669C253.427 226.736 253.003 227.76 252.248 228.514C251.494 229.269 250.471 229.693 249.404 229.695V229.695Z" fill="white"/>
<path d="M249.404 229.977H110.241C103.341 229.97 96.7259 227.225 91.8467 222.345C86.9675 217.465 84.223 210.849 84.2151 203.948V126.134C84.2164 124.992 84.6706 123.897 85.4781 123.09C86.2856 122.282 87.3804 121.828 88.5224 121.826H249.404C250.546 121.828 251.641 122.282 252.448 123.09C253.256 123.897 253.71 124.992 253.711 126.134V225.669C253.71 226.811 253.256 227.906 252.448 228.714C251.641 229.522 250.546 229.976 249.404 229.977V229.977ZM88.5224 122.958C87.6804 122.959 86.8733 123.294 86.2779 123.889C85.6826 124.485 85.3477 125.292 85.3467 126.134V203.948C85.3542 210.549 87.9794 216.877 92.6464 221.545C97.3134 226.213 103.641 228.838 110.241 228.846H249.404C250.246 228.845 251.053 228.51 251.649 227.914C252.244 227.319 252.579 226.511 252.58 225.669V126.134C252.579 125.292 252.244 124.485 251.649 123.89C251.053 123.294 250.246 122.959 249.404 122.958H88.5224Z" fill="#CCCCCC"/>
<path d="M217.602 155.634H120.324C119.882 155.635 119.444 155.548 119.035 155.379C118.625 155.21 118.254 154.962 117.941 154.649C117.627 154.337 117.379 153.965 117.21 153.556C117.04 153.147 116.953 152.709 116.953 152.266C116.953 151.824 117.04 151.386 117.21 150.977C117.379 150.568 117.627 150.196 117.941 149.884C118.254 149.571 118.625 149.323 119.035 149.154C119.444 148.985 119.882 148.898 120.324 148.899H217.602C218.045 148.898 218.483 148.985 218.892 149.154C219.301 149.323 219.673 149.571 219.986 149.884C220.299 150.196 220.547 150.568 220.717 150.977C220.886 151.386 220.974 151.824 220.974 152.266C220.974 152.709 220.886 153.147 220.717 153.556C220.547 153.965 220.299 154.337 219.986 154.649C219.673 154.962 219.301 155.21 218.892 155.379C218.483 155.548 218.045 155.635 217.602 155.634Z" fill="#CCCCCC"/>
<path d="M217.602 178.834H120.324C119.882 178.835 119.444 178.748 119.035 178.579C118.625 178.41 118.254 178.162 117.941 177.849C117.627 177.537 117.379 177.165 117.21 176.756C117.04 176.347 116.953 175.909 116.953 175.466C116.953 175.024 117.04 174.586 117.21 174.177C117.379 173.768 117.627 173.396 117.941 173.084C118.254 172.771 118.625 172.523 119.035 172.354C119.444 172.185 119.882 172.098 120.324 172.099H217.602C218.495 172.099 219.352 172.454 219.983 173.085C220.614 173.717 220.969 174.573 220.969 175.466C220.969 176.36 220.614 177.216 219.983 177.848C219.352 178.479 218.495 178.834 217.602 178.834Z" fill="#CCCCCC"/>
<path d="M217.602 202.697H120.325C119.431 202.697 118.575 202.343 117.943 201.711C117.312 201.079 116.957 200.223 116.957 199.33C116.957 198.436 117.312 197.58 117.943 196.948C118.575 196.317 119.431 195.962 120.325 195.962H217.602C218.045 195.961 218.483 196.048 218.892 196.217C219.301 196.386 219.673 196.634 219.986 196.947C220.299 197.26 220.547 197.631 220.717 198.04C220.886 198.449 220.974 198.887 220.974 199.33C220.974 199.772 220.886 200.211 220.717 200.619C220.547 201.028 220.299 201.4 219.986 201.713C219.673 202.025 219.301 202.273 218.892 202.442C218.483 202.611 218.045 202.698 217.602 202.697Z" fill="#CCCCCC"/>
<path d="M249.91 147.519C260.577 147.519 269.225 138.87 269.225 128.201C269.225 117.532 260.577 108.883 249.91 108.883C239.242 108.883 230.594 117.532 230.594 128.201C230.594 138.87 239.242 147.519 249.91 147.519Z" fill="#6C63FF"/>
<path d="M247.275 138.255C246.941 138.255 246.612 138.177 246.314 138.028C246.015 137.879 245.756 137.662 245.556 137.395L240.286 130.368C240.117 130.143 239.994 129.886 239.924 129.612C239.854 129.339 239.838 129.055 239.878 128.775C239.918 128.496 240.013 128.227 240.157 127.984C240.3 127.741 240.491 127.529 240.716 127.36C240.942 127.191 241.199 127.068 241.472 126.998C241.745 126.928 242.03 126.912 242.309 126.952C242.589 126.992 242.857 127.086 243.1 127.23C243.343 127.374 243.555 127.564 243.724 127.79L247.172 132.387L256.026 119.104C256.343 118.63 256.834 118.302 257.392 118.19C257.951 118.079 258.53 118.194 259.004 118.51C259.478 118.826 259.807 119.317 259.919 119.875C260.031 120.433 259.917 121.013 259.602 121.488L249.063 137.298C248.872 137.584 248.616 137.82 248.315 137.986C248.014 138.153 247.678 138.245 247.334 138.254C247.315 138.255 247.295 138.255 247.275 138.255Z" fill="white"/>
<path d="M299.949 383.578L292.091 386.206L278.214 357.142L289.812 353.262L299.949 383.578Z" fill="#FFB6B6"/>
<path d="M304.501 390.526L279.162 397.303L279.055 396.983C278.174 394.348 278.371 393.225 279.611 390.739C280.218 389.515 281.061 388.423 282.092 387.527C283.123 386.63 284.322 385.948 285.618 385.518L285.619 385.517L289.073 380.457L298.883 381.081L301.095 380.341L304.501 390.526Z" fill="#2F2E41"/>
<path d="M319.364 390.967H311.078L307.136 359.002L319.366 359.003L319.364 390.967Z" fill="#FFB6B6"/>
<path d="M321.478 397.303L294.759 397.302V396.964C294.759 394.186 295.841 393.272 297.806 391.307C298.769 390.339 299.915 389.571 301.177 389.048C302.439 388.525 303.793 388.258 305.159 388.261H305.159L310.04 384.558L319.146 388.262L321.478 388.262L321.478 397.303Z" fill="#2F2E41"/>
<path d="M256.301 134.854C256.471 135.722 256.83 136.542 257.352 137.257C257.874 137.971 258.546 138.563 259.321 138.989C260.097 139.416 260.956 139.667 261.839 139.726C262.721 139.784 263.606 139.649 264.431 139.328L273.997 149.317L281.484 144.983L267.777 131.067C267.147 129.717 266.043 128.645 264.676 128.055C263.308 127.464 261.772 127.396 260.357 127.862C258.943 128.329 257.748 129.299 257.001 130.587C256.253 131.876 256.004 133.394 256.301 134.854V134.854Z" fill="#FFB6B6"/>
<path d="M318.21 185.077L322.523 180.615L297.584 157.515L272.484 135.1L265.532 144.924L291.835 169.479L318.21 185.077Z" fill="#E4E4E4"/>
<path d="M302.887 336.672C302.887 331.064 302.998 327.064 303.087 323.85C303.348 314.444 303.418 311.915 299.819 295.716L298.894 291.556L293.443 307.912C291.702 313.129 290.812 318.593 290.808 324.093L299.213 374.529H282.035L269.453 320.003L269.447 303.324C268.339 302.176 267.719 300.643 267.719 299.048C267.719 297.452 268.339 295.919 269.447 294.772L273.627 269.784L277.858 236.108H324.2C324.2 236.108 332.379 253.063 324.251 269.88L324.25 336.693L320.051 382.89H307.087L302.887 336.672Z" fill="#2F2E41"/>
<path d="M321.367 240.184L278.02 236.572L277.795 236.553L281.254 174.278C281.458 170.363 282.831 166.598 285.198 163.472C287.564 160.346 290.814 158.003 294.527 156.744V152.386C294.528 151.308 294.957 150.274 295.72 149.511C296.482 148.748 297.516 148.319 298.595 148.318H304.928C305.684 148.315 306.426 148.525 307.069 148.922C307.712 149.32 308.231 149.89 308.567 150.567L311.664 156.762L323.375 166.132C329.159 170.76 324.504 217.159 324.253 219.607L327.086 233.771C327.241 234.55 327.223 235.354 327.03 236.125C326.838 236.896 326.478 237.615 325.975 238.23C325.472 238.845 324.839 239.341 324.122 239.683C323.404 240.024 322.62 240.202 321.826 240.204C321.674 240.203 321.521 240.197 321.367 240.184Z" fill="#E4E4E4"/>
<path d="M275.463 256.627C276.148 256.068 276.703 255.365 277.087 254.568C277.471 253.77 277.676 252.899 277.687 252.014C277.697 251.129 277.514 250.253 277.15 249.447C276.786 248.64 276.249 247.924 275.578 247.347L279.878 234.202L272.528 229.639L266.716 248.289C265.822 249.481 265.397 250.959 265.52 252.444C265.644 253.928 266.308 255.316 267.386 256.344C268.464 257.372 269.882 257.968 271.371 258.021C272.859 258.073 274.315 257.577 275.463 256.627V256.627Z" fill="#FFB6B6"/>
<path d="M290.579 167.262L284.612 165.272L275.993 203.733L268.054 241.981L279.994 243.738L289.253 203.069L290.579 167.262Z" fill="#E4E4E4"/>
<path d="M297.096 144.337C304.959 144.337 311.332 137.963 311.332 130.099C311.332 122.236 304.959 115.861 297.096 115.861C289.233 115.861 282.86 122.236 282.86 130.099C282.86 137.963 289.233 144.337 297.096 144.337Z" fill="#FFB6B6"/>
<path d="M277.941 123.126C278.072 121.777 278.459 120.465 279.08 119.26C279.746 120.707 281.822 120.958 283.243 120.238C284.664 119.518 285.616 118.15 286.631 116.922C289.31 113.683 292.995 111.055 297.171 110.577C301.347 110.098 305.95 112.207 307.528 116.103C308.236 115.12 309.746 115.01 310.815 115.582C311.847 116.233 312.653 117.187 313.121 118.314C314.172 120.471 314.766 122.821 314.866 125.218C314.965 127.616 314.568 130.007 313.7 132.244C311.942 136.694 307.599 142.69 303.119 144.37C300.399 145.389 297.652 144.084 294.759 144.37C294.911 141.212 295.523 137.317 295.674 134.159C295.757 132.43 295.769 130.495 294.588 129.23C294.226 128.886 293.793 128.626 293.319 128.468C292.845 128.31 292.342 128.258 291.846 128.316C291.35 128.374 290.873 128.54 290.448 128.803C290.023 129.066 289.661 129.419 289.388 129.837C289.242 128.855 288.91 127.91 288.411 127.052C288.155 126.627 287.785 126.281 287.344 126.055C286.902 125.829 286.405 125.73 285.911 125.771C284.703 125.969 283.957 127.209 282.848 127.728C282.219 127.981 281.527 128.035 280.866 127.883C280.205 127.731 279.606 127.381 279.149 126.88C278.706 126.368 278.37 125.771 278.162 125.126C277.955 124.481 277.879 123.801 277.941 123.126V123.126Z" fill="#2F2E41"/>
<path opacity="0.1" d="M298.939 202.897L282.219 236.34H294.759L298.939 202.897Z" fill="black"/>
<path d="M411 398.327C411 398.415 410.983 398.503 410.949 398.585C410.916 398.667 410.866 398.741 410.803 398.803C410.741 398.866 410.667 398.916 410.585 398.949C410.503 398.983 410.415 399 410.327 399H91.0592C90.8806 399 90.7094 398.929 90.5831 398.803C90.4569 398.677 90.3859 398.505 90.3859 398.327C90.3859 398.148 90.4569 397.977 90.5831 397.851C90.7094 397.724 90.8806 397.653 91.0592 397.653H410.327C410.415 397.653 410.503 397.67 410.585 397.704C410.667 397.738 410.741 397.787 410.803 397.85C410.866 397.913 410.916 397.987 410.949 398.069C410.983 398.151 411 398.238 411 398.327V398.327Z" fill="#CACACA"/>
</g>
<defs>
<clipPath id="clip0_339254_88">
<rect width="411" height="399" fill="white"/>
</clipPath>
</defs>
</svg>
