<svg width="465" height="145" viewBox="0 0 465 145" fill="none" xmlns="http://www.w3.org/2000/svg">
<path d="M67.5869 87.2515C64.54 86.9341 60.6045 86.7754 55.7803 86.7754H26.9302V142H0.841309V14.6978C2.55518 14.8247 4.52295 14.9199 6.74463 14.9834L13.7905 15.1738C18.6147 15.3008 23.6294 15.3643 28.8345 15.3643C44.4497 15.3643 59.3667 15.1104 73.5854 14.6025C72.8872 20.1885 72.5381 27.647 72.5381 36.978C72.5381 37.9937 72.6016 38.7554 72.7285 39.2632L72.5381 39.5488C69.1738 38.5967 64.4766 38.1206 58.4463 38.1206H26.9302V64.3047H54.7329C61.7153 64.3047 65.9048 64.1143 67.3013 63.7334L67.5869 87.2515ZM118.241 131.336C118.241 136.795 118.368 140.35 118.622 142H94.9136V42.5005H118.241V49.832C123.637 43.6748 129.286 40.5962 135.189 40.5962C141.156 40.5962 145.854 41.3262 149.281 42.7861L147.567 68.3989L147.187 68.6846C144.965 64.749 140.363 62.7812 133.38 62.7812C130.714 62.7812 127.985 63.7017 125.192 65.5425C122.462 67.3198 120.146 69.7002 118.241 72.6836V131.336ZM156.137 93.0596C156.137 85.6328 157.406 78.7456 159.945 72.3979C162.484 66.0503 166.071 60.4961 170.705 55.7354C180.607 45.6426 193.556 40.5962 209.552 40.5962C223.073 40.5962 233.927 45.0713 242.116 54.0215C250.177 62.6543 254.208 73.5088 254.208 86.585C254.208 91.5996 253.827 95.0273 253.065 96.8682C246.718 98.6455 233.8 99.5342 214.313 99.5342H180.797C182.448 106.326 186.288 111.626 192.318 115.435C198.349 119.18 206.188 121.053 215.836 121.053C225.929 121.053 234.594 119.244 241.83 115.625C243.734 114.673 245.163 113.785 246.115 112.959C245.988 115.625 245.829 118.355 245.639 121.148L244.591 136.001C239.767 139.302 231.959 141.587 221.168 142.857C217.995 143.238 214.948 143.428 212.028 143.428C195.905 143.428 182.575 138.731 172.038 129.336C161.437 119.878 156.137 107.786 156.137 93.0596ZM228.881 81.0625C226.278 67.415 218.852 60.5913 206.601 60.5913C196.952 60.5913 189.621 64.749 184.606 73.0645C183.083 75.6035 181.908 78.3965 181.083 81.4434C182.606 81.5068 184.479 81.5703 186.701 81.6338H193.747C196.095 81.6973 198.349 81.729 200.507 81.729H205.934C209.171 81.729 212.345 81.6973 215.456 81.6338L223.263 81.3481C225.358 81.2847 227.23 81.1895 228.881 81.0625ZM297.055 131.336C297.055 136.795 297.182 140.35 297.436 142H273.251V0.129883H297.055V131.336ZM345.995 131.336C345.995 136.795 346.122 140.35 346.376 142H322.191V0.129883H345.995V131.336ZM438.544 136.097C429.53 140.984 421.374 143.428 414.074 143.428C406.774 143.428 400.521 142.762 395.316 141.429C390.111 140.032 385.7 138.001 382.082 135.335C374.718 129.939 371.037 122.132 371.037 111.912C371.037 102.771 375.543 95.1543 384.557 89.0605C394.333 82.459 407.599 79.1582 424.357 79.1582L428.166 79.2534C428.927 79.3169 429.784 79.3804 430.736 79.4438C431.688 79.4438 432.545 79.5073 433.307 79.6343C432.799 69.478 428.419 63.543 420.167 61.8291C417.438 61.2578 414.518 60.9722 411.408 60.9722C408.361 60.9722 405.346 61.2578 402.362 61.8291C399.442 62.3369 396.586 63.0352 393.793 63.9238C387.636 65.8916 383.224 68.145 380.558 70.6841L380.272 70.4937L377.416 49.4512C388.651 43.5479 400.934 40.5962 414.264 40.5962C434.958 40.5962 448.192 48.0547 453.969 62.9717C455.81 67.7324 456.73 73.0962 456.73 79.063V113.531C456.73 120.894 459.333 125.909 464.538 128.575L447.304 144.38C443.686 142.476 440.766 139.715 438.544 136.097ZM433.402 96.7729C431.688 96.4556 429.911 96.2969 428.07 96.2969H424.262C410.233 96.2969 401.315 99.4072 397.506 105.628C396.364 107.469 395.792 109.405 395.792 111.436C395.792 113.467 396.142 115.276 396.84 116.863C397.602 118.387 398.839 119.656 400.553 120.672C403.854 122.576 408.742 123.528 415.216 123.528C421.754 123.528 427.848 121.973 433.498 118.863C433.434 118.165 433.402 117.435 433.402 116.673V96.7729Z" fill="white"/>
</svg>
