<svg width="99" height="99" viewBox="0 0 99 99" fill="none" xmlns="http://www.w3.org/2000/svg">
<circle cx="49.5" cy="49.5" r="49.5" fill="#FAFAFC"/>
<path d="M67.6312 30H32.3688C31.0627 30 30 31.1095 30 32.4733V34.7111C30 36.0749 31.0627 37.1846 32.3688 37.1846H34.3514V56.4472C34.3514 57.8111 35.4141 58.9206 36.7202 58.9206H48.8874V64.4204L38.0011 67.4637C37.4075 67.6297 37.0551 68.2666 37.214 68.8863C37.3471 69.4054 37.7967 69.7479 38.288 69.7479C38.3833 69.7479 38.4802 69.735 38.5765 69.7081L49.9561 66.5268C49.9707 66.5274 49.9852 66.5292 50.0001 66.5292C50.0149 66.5292 50.0294 66.5275 50.0442 66.5268L61.4236 69.7081C61.52 69.735 61.6168 69.7479 61.712 69.7479C62.2034 69.7479 62.6529 69.4054 62.7861 68.8863C62.9449 68.2666 62.5926 67.6297 61.9991 67.4637L51.1127 64.4203V58.9206H63.2797C64.5859 58.9206 65.6485 57.8111 65.6485 56.4472V37.1846H67.6312C68.9374 37.1846 70 36.075 70 34.7111V32.4733C70 31.1095 68.9374 30 67.6312 30ZM67.7748 34.7111C67.7748 34.7939 67.7105 34.8613 67.6312 34.8613H32.3688C32.2896 34.8613 32.2252 34.7939 32.2252 34.7111V32.4733C32.2252 32.3906 32.2896 32.3233 32.3688 32.3233H67.6312C67.7104 32.3233 67.7748 32.3906 67.7748 32.4733V34.7111ZM63.4233 56.4472C63.4233 56.5299 63.359 56.5973 63.2797 56.5973H36.7202C36.641 56.5973 36.5766 56.5299 36.5766 56.4472V37.1846H63.4233V56.4472Z" fill="#6F67F0"/>
<path d="M39.4074 55.0164C39.669 55.0164 39.9318 54.9205 40.1433 54.7256L46.9843 48.4198L49.9073 51.1733C50.3422 51.583 51.0068 51.5705 51.4273 51.1446L58.8688 43.6075C59.3097 43.1609 59.3204 42.4254 58.8927 41.9648C58.4648 41.5044 57.7605 41.4932 57.3194 41.9399L50.625 48.7204L47.7376 46.0005C47.3176 45.6048 46.6802 45.6012 46.256 45.9921L38.6706 52.9838C38.2101 53.4084 38.1662 54.1426 38.5729 54.6235C38.7928 54.8836 39.0993 55.0164 39.4074 55.0164Z" fill="#6F67F0"/>
<path d="M60.5932 41.3585C60.8862 41.3585 61.1727 41.2346 61.3795 41.0177C61.5871 40.8019 61.7058 40.5027 61.7058 40.1968C61.7058 39.8909 61.5872 39.5918 61.3795 39.3749C61.1727 39.1591 60.8862 39.0352 60.5932 39.0352C60.3003 39.0352 60.0138 39.1591 59.8062 39.3749C59.5995 39.5918 59.4807 39.8909 59.4807 40.1968C59.4807 40.5027 59.5994 40.8019 59.8062 41.0177C60.0138 41.2346 60.3003 41.3585 60.5932 41.3585Z" fill="#6F67F0"/>
</svg>
