<svg width="109" height="109" viewBox="0 0 109 109" fill="none" xmlns="http://www.w3.org/2000/svg">
<circle cx="54.5" cy="54.5" r="54.5" fill="#FAFAFC"/>
<path d="M77.7454 71.5494V46.7615H74.6765V54.8264C74.6765 56.57 73.2577 57.9888 71.5141 57.9888H38.7888V72.0359H71.1043C71.3987 72.0359 71.6875 72.1158 71.9402 72.2666L80.182 77.1869L77.8957 72.2331C77.7966 72.0185 77.7454 71.7854 77.7454 71.5494ZM63.3915 65.7111H43.4829C42.5821 65.7111 41.8518 64.9808 41.8518 64.08C41.8518 63.1793 42.5821 62.449 43.4829 62.449H63.3915C64.2922 62.449 65.0225 63.1793 65.0225 64.08C65.0225 64.9808 64.2922 65.7111 63.3915 65.7111Z" fill="#EBEBF5"/>
<path d="M85.3528 80.6059L81.0075 71.1913V46.6234C81.0075 44.9007 79.6063 43.4996 77.8839 43.4996H74.6765V28.6175C74.6765 26.8738 73.2577 25.4551 71.5141 25.4551H31.2704C29.5267 25.4551 28.1081 26.8738 28.1081 28.6175V53.8279L23.6472 63.4933C23.3475 64.1426 23.5057 64.9115 24.0373 65.3895C24.3447 65.6659 24.7352 65.8079 25.1285 65.8079C25.4159 65.8079 25.705 65.7319 25.9642 65.5773L35.5264 59.8685V72.1746C35.5264 73.897 36.9276 75.2981 38.6501 75.2981H70.6541L83.0356 82.69C83.2948 82.8449 83.5838 82.9204 83.8713 82.9204C84.2648 82.9204 84.6552 82.7784 84.9623 82.5021C85.4943 82.024 85.6524 81.2552 85.3528 80.6059ZM71.9402 72.2667C71.6875 72.116 71.3987 72.0361 71.1043 72.0361H38.7887V57.9889H71.5142C73.2578 57.9889 74.6766 56.5702 74.6766 54.8265V46.7616H77.7455V71.5496C77.7455 71.7856 77.7967 72.0187 77.8957 72.2332L80.1819 77.1869L71.9402 72.2667ZM28.8182 60.0743L31.2202 54.8696C31.3192 54.6554 31.3704 54.422 31.3704 54.1861V28.7174H71.4143V54.7268H38.2244C37.9299 54.7268 37.6411 54.8064 37.3886 54.9574L28.8182 60.0743Z" fill="#6F67F0"/>
<path d="M36.6393 37.9648H66.6576C67.5585 37.9648 68.2886 37.2345 68.2886 36.3337C68.2886 35.433 67.5585 34.7026 66.6576 34.7026H36.6393C35.7385 34.7026 35.0082 35.433 35.0082 36.3337C35.0082 37.2345 35.7385 37.9648 36.6393 37.9648Z" fill="#6F67F0"/>
<path d="M58.1789 45.2605C58.1789 44.3594 57.4486 43.6294 56.5478 43.6294H36.6393C35.7385 43.6294 35.0082 44.3594 35.0082 45.2605C35.0082 46.1612 35.7385 46.8916 36.6393 46.8916H56.5478C57.4486 46.8916 58.1789 46.1612 58.1789 45.2605Z" fill="#6F67F0"/>
<path d="M63.3914 62.449H43.4828C42.5821 62.449 41.8517 63.1793 41.8517 64.0801C41.8517 64.9808 42.5821 65.7111 43.4828 65.7111H63.3914C64.2922 65.7111 65.0225 64.9808 65.0225 64.0801C65.0225 63.1793 64.2922 62.449 63.3914 62.449Z" fill="#6F67F0"/>
</svg>
