<svg width="100" height="25" viewBox="0 0 100 25" fill="none" xmlns="http://www.w3.org/2000/svg">
<path d="M0.414491 0.607999H16.5305V5.776H7.72449V10.502H15.8845V14.786H7.72449V24H0.414491V0.607999ZM17.7731 7.204H24.9471V10.672C25.4684 9.33467 26.1711 8.34867 27.0551 7.714C27.9618 7.05667 29.0158 6.728 30.2171 6.728L31.2031 12.27C29.0498 12.27 27.4631 12.508 26.4431 12.984C25.4458 13.4373 24.9471 14.1627 24.9471 15.16V24H17.7731V7.204ZM40.5629 24.272C38.6816 24.272 37.0042 23.898 35.5309 23.15C34.0802 22.3793 32.9469 21.3367 32.1309 20.022C31.3149 18.6847 30.9069 17.1773 30.9069 15.5C30.9069 13.7773 31.3262 12.2473 32.1649 10.91C33.0036 9.57267 34.1369 8.54133 35.5649 7.816C36.9929 7.09067 38.5796 6.728 40.3249 6.728C42.0022 6.728 43.4302 7.102 44.6089 7.85C45.8102 8.57533 46.7056 9.57267 47.2949 10.842C47.8842 12.0887 48.1789 13.494 48.1789 15.058C48.1789 15.466 48.1562 15.7607 48.1109 15.942L37.9109 17.268C38.1829 18.0613 38.6249 18.6393 39.2369 19.002C39.8489 19.342 40.6536 19.512 41.6509 19.512C43.1922 19.512 44.8582 19.1153 46.6489 18.322L47.4989 22.878C45.3909 23.8073 43.0789 24.272 40.5629 24.272ZM42.9089 12.984C42.5462 11.556 41.6849 10.842 40.3249 10.842C39.5089 10.842 38.8629 11.148 38.3869 11.76C37.9109 12.372 37.6616 13.1653 37.6389 14.14L42.9089 12.984ZM58.2655 24.272C56.3842 24.272 54.7068 23.898 53.2335 23.15C51.7828 22.3793 50.6495 21.3367 49.8335 20.022C49.0175 18.6847 48.6095 17.1773 48.6095 15.5C48.6095 13.7773 49.0288 12.2473 49.8675 10.91C50.7062 9.57267 51.8395 8.54133 53.2675 7.816C54.6955 7.09067 56.2822 6.728 58.0275 6.728C59.7048 6.728 61.1328 7.102 62.3115 7.85C63.5128 8.57533 64.4082 9.57267 64.9975 10.842C65.5868 12.0887 65.8815 13.494 65.8815 15.058C65.8815 15.466 65.8588 15.7607 65.8135 15.942L55.6135 17.268C55.8855 18.0613 56.3275 18.6393 56.9395 19.002C57.5515 19.342 58.3562 19.512 59.3535 19.512C60.8948 19.512 62.5608 19.1153 64.3515 18.322L65.2015 22.878C63.0935 23.8073 60.7815 24.272 58.2655 24.272ZM60.6115 12.984C60.2488 11.556 59.3875 10.842 58.0275 10.842C57.2115 10.842 56.5655 11.148 56.0895 11.76C55.6135 12.372 55.3642 13.1653 55.3415 14.14L60.6115 12.984ZM73.1461 24.272C71.2194 24.272 69.7234 23.6713 68.6581 22.47C67.6154 21.246 67.0941 19.58 67.0941 17.472V1.594L74.2681 0.539998V16.962C74.2681 17.5967 74.4154 18.0613 74.7101 18.356C75.0274 18.628 75.5714 18.764 76.3421 18.764C76.9087 18.764 77.4641 18.628 78.0081 18.356L78.2461 23.116C76.7274 23.8867 75.0274 24.272 73.1461 24.272ZM86.3357 24.272C84.8623 24.272 83.4797 23.8867 82.1877 23.116C80.9183 22.3227 79.8983 21.2573 79.1277 19.92C78.357 18.56 77.9717 17.0527 77.9717 15.398C77.9717 13.766 78.357 12.2927 79.1277 10.978C79.8983 9.64067 80.9297 8.598 82.2217 7.85C83.5137 7.102 84.885 6.728 86.3357 6.728C87.5143 6.728 88.6023 7.05667 89.5997 7.714C90.6197 8.37133 91.3903 9.35733 91.9117 10.672V6.728H99.0517V24H91.9117V20.838C90.7783 23.1273 88.9197 24.272 86.3357 24.272ZM88.5457 18.9C89.4523 18.9 90.223 18.5827 90.8577 17.948C91.515 17.2907 91.8663 16.52 91.9117 15.636V15.364C91.8663 14.4573 91.5037 13.6867 90.8237 13.052C90.1663 12.4173 89.407 12.1 88.5457 12.1C87.5937 12.1 86.7777 12.44 86.0977 13.12C85.4403 13.7773 85.1117 14.5707 85.1117 15.5C85.1117 16.452 85.4517 17.2567 86.1317 17.914C86.8117 18.5713 87.6163 18.9 88.5457 18.9Z" fill="white"/>
</svg>
