<svg width="12" height="12" viewBox="0 0 12 12" fill="none" xmlns="http://www.w3.org/2000/svg">
<path d="M2.6296 6.59871C2.15216 5.94313 1.33494 5.30097 0.926131 4.88599C0.318395 4.26907 1.9321 4.35596 2.75364 4.08211L4.24294 3.58569C4.40882 3.53039 4.54945 3.41758 4.63941 3.26765L5.79855 1.33575C5.85514 1.24143 6 1.28155 6 1.39155C6 1.45144 6.05036 1.50154 6.10302 1.53009C6.37909 1.67979 6.75362 2.3613 7.04538 2.97059C7.3439 3.59399 7.93239 4.04023 8.61947 4.11558C9.64345 4.22789 10.9999 4.39624 10.9999 4.5V4.66667C10.9999 4.85076 10.8507 5 10.6666 5C10.5616 5 10.4629 5.0494 10.3999 5.13333L9.69162 6.0777C9.24985 6.66674 9.06838 7.41091 9.18943 8.13719L9.43549 9.61356C9.47591 9.85607 9.39672 10.1032 9.22287 10.277C9.08011 10.4198 8.88447 10.5 8.68257 10.5C8.5632 10.5 8.44431 10.4722 8.33755 10.4188L6.94727 9.72364C6.65313 9.57657 6.32879 9.5 5.99994 9.5H5.92695C5.64611 9.5 5.36912 9.56539 5.11793 9.69098L3.34274 10.5786C2.95551 10.7722 2.4999 10.4906 2.4999 10.0577C2.4999 10.0193 2.50369 9.98106 2.51121 9.94344L2.80577 8.47086C2.93492 7.8252 3.01722 7.13097 2.6296 6.59871Z" fill="#6F67F0" stroke="#6F67F0"/>
<path d="M11.9496 4.32278C11.8923 4.14478 11.7868 3.98613 11.6448 3.86438C11.5028 3.74263 11.33 3.66255 11.1453 3.63298L8.24756 3.16206L6.90426 0.55171C6.8187 0.385531 6.68901 0.246132 6.52943 0.148809C6.36986 0.0514862 6.18655 0 5.99964 0C5.81273 0 5.62942 0.0514862 5.46984 0.148809C5.31027 0.246132 5.18058 0.385531 5.09502 0.55171L3.75172 3.16206L0.854041 3.63298C0.669558 3.66301 0.496911 3.74327 0.355041 3.86496C0.213172 3.98665 0.107563 4.14507 0.0498032 4.32283C-0.00795716 4.5006 -0.0156372 4.69083 0.0276057 4.87267C0.0708486 5.05451 0.163343 5.22093 0.294941 5.35366L2.36244 7.43786L1.91494 10.3392C1.88623 10.524 1.90903 10.7132 1.98085 10.8858C2.05267 11.0585 2.17072 11.208 2.32202 11.318C2.47332 11.4279 2.652 11.494 2.83842 11.5089C3.02483 11.5238 3.21176 11.4871 3.37864 11.4027L5.99964 10.0804L8.62071 11.4027C8.78761 11.4869 8.97449 11.5235 9.16083 11.5085C9.34718 11.4935 9.52578 11.4274 9.67702 11.3175C9.82827 11.2076 9.9463 11.0582 10.0182 10.8856C10.09 10.713 10.113 10.524 10.0844 10.3392L9.63691 7.43786L11.7044 5.35366C11.8364 5.22119 11.9292 5.05477 11.9725 4.87282C12.0158 4.69088 12.0079 4.50051 11.9496 4.32278ZM11.1364 4.79028L8.78464 7.16101L9.29374 10.4613C9.30005 10.5008 9.29529 10.5413 9.28 10.5783C9.26471 10.6153 9.23947 10.6473 9.20709 10.6708C9.17471 10.6943 9.13645 10.7084 9.09654 10.7116C9.05664 10.7147 9.01665 10.7067 8.98101 10.6885L5.99964 9.18441L3.01824 10.6885C2.9826 10.7067 2.94262 10.7147 2.90271 10.7116C2.86281 10.7085 2.82455 10.6944 2.79217 10.6709C2.75978 10.6473 2.73455 10.6153 2.71925 10.5783C2.70396 10.5413 2.6992 10.5008 2.70552 10.4613L3.21464 7.16101L0.862916 4.79026C0.834832 4.76189 0.815099 4.72633 0.805878 4.68749C0.796658 4.64864 0.798306 4.60801 0.810642 4.57004C0.822978 4.53208 0.845526 4.49824 0.875815 4.47223C0.906105 4.44622 0.942968 4.42906 0.982366 4.42261L4.27839 3.88696L5.80636 0.917785C5.82464 0.882269 5.85234 0.852473 5.88644 0.831671C5.92053 0.810868 5.9597 0.799863 5.99964 0.799863C6.03958 0.799863 6.07875 0.810868 6.11284 0.831671C6.14694 0.852473 6.17464 0.882269 6.19291 0.917785L7.72089 3.88696L11.0169 4.42261C11.0563 4.42906 11.0932 4.44622 11.1235 4.47223C11.1538 4.49824 11.1763 4.53208 11.1886 4.57004C11.201 4.60801 11.2026 4.64864 11.1934 4.68749C11.1842 4.72633 11.1645 4.76191 11.1364 4.79028Z" fill="#6F67F0"/>
</svg>
