<svg width="99" height="99" viewBox="0 0 99 99" fill="none" xmlns="http://www.w3.org/2000/svg">
<circle cx="49.5" cy="49.5" r="49.5" fill="#FAFAFC"/>
<path d="M69.2215 41.0532C68.4152 40.2277 67.4184 39.7104 66.3557 39.5518V29.5999C66.3557 29.1271 66.0942 28.6979 65.687 28.5028C65.2799 28.3074 64.8027 28.3824 64.4665 28.694C57.4853 35.1682 44.7251 36.7253 43.0137 36.9075C42.9889 36.9057 42.9643 36.9035 42.9389 36.9035L36.7549 36.9024C36.7373 36.9024 36.7196 36.9028 36.7021 36.9036C36.6918 36.9035 36.6813 36.9035 36.671 36.9035L36.6376 36.9037C32.4455 36.9787 29.0927 40.9234 29.1639 45.6968C29.1976 47.9667 29.9947 50.0982 31.4085 51.6989C32.8455 53.3258 34.7518 54.2217 36.7764 54.2217C36.8137 54.2217 38.3744 54.2208 38.3744 54.2208L42.1571 67.9797C42.1668 68.015 42.1779 68.0494 42.1905 68.0832C42.5884 69.3369 43.4137 70.3666 44.5209 70.9883C45.232 71.3875 46.0095 71.5904 46.7941 71.5903C47.2572 71.5903 47.7231 71.5195 48.1788 71.3769C49.4067 70.9925 50.4256 70.1289 51.0481 68.9452C51.658 67.7852 51.8209 66.4448 51.5091 65.1625C51.503 65.132 51.4959 65.1016 51.4876 65.0714L48.77 55.1862C53.5272 56.2355 60.1109 58.3332 64.4664 62.3724C64.6782 62.5688 64.9463 62.6711 65.2172 62.6711C65.3764 62.6711 65.5364 62.6358 65.6869 62.5637C66.0941 62.3684 66.3556 61.9393 66.3556 61.4665V51.4784C68.9947 51.0905 71.0187 48.5052 70.9727 45.4207C70.9481 43.7596 70.3098 42.1676 69.2215 41.0532ZM47.5327 69.0666C46.1956 69.4854 44.7615 68.6825 44.3369 67.2765C44.3334 67.2646 44.3297 67.253 44.3258 67.2415L40.746 54.2208H42.891C43.1251 54.2422 44.3958 54.3667 46.2625 54.6916L49.284 65.6822C49.2871 65.6962 49.2904 65.7101 49.294 65.724C49.6603 67.1485 48.8703 68.6479 47.5327 69.0666ZM37.5675 39.3117L41.8 39.3125V45.5621V51.8117H37.5675V39.3117ZM35.2903 51.5606C33.1073 50.8081 31.4822 48.448 31.4407 45.659C31.3977 42.7743 33.0362 40.311 35.2903 39.553V51.5606ZM64.0783 58.9974C60.848 56.6042 56.6006 54.7081 51.4136 53.3472C48.2085 52.5064 45.4944 52.1016 44.0772 51.9279V39.2077C45.5006 39.0257 48.21 38.6075 51.4062 37.7568C56.5983 36.3744 60.8478 34.4661 64.0783 32.0698V58.9974ZM66.3556 49.0283V42.0059C66.825 42.1384 67.2654 42.4032 67.6377 42.7843C68.2949 43.4573 68.6807 44.4322 68.6959 45.4586C68.7217 47.1882 67.7133 48.6553 66.3556 49.0283Z" fill="#6F67F0"/>
</svg>
