<svg width="99" height="99" viewBox="0 0 99 99" fill="none" xmlns="http://www.w3.org/2000/svg">
<circle cx="49.5" cy="49.5" r="49.5" fill="#FAFAFC"/>
<path d="M50.4271 65.8854C50.7281 65.8854 51.0225 65.7556 51.2349 65.5288C51.4473 65.3029 51.5702 64.9899 51.5702 64.6697C51.5702 64.3496 51.4474 64.0356 51.2349 63.8097C51.0225 63.5838 50.7281 63.4541 50.4271 63.4541C50.1261 63.4541 49.8308 63.5837 49.6186 63.8097C49.4062 64.0366 49.2841 64.3496 49.2841 64.6697C49.2841 64.9899 49.4061 65.3029 49.6186 65.5288C49.8308 65.7556 50.1261 65.8854 50.4271 65.8854Z" fill="#6F67F0"/>
<path d="M59.3889 29H41.4653C39.5547 29 38 30.6531 38 32.6851V66.3147C38 68.3467 39.5546 70 41.4653 70H59.3889C61.2998 70 62.8542 68.3467 62.8542 66.3147V32.6851C62.8542 30.6531 61.2998 29 59.3889 29ZM60.5681 66.3147C60.5681 67.0062 60.0391 67.5687 59.3889 67.5687H41.4653C40.8151 67.5687 40.2861 67.0062 40.2861 66.3147V62.1189H60.5681V66.3147ZM60.5681 59.6876H40.2861V32.6851C40.2861 31.9938 40.8151 31.4311 41.4653 31.4311H59.3889C60.0391 31.4311 60.5681 31.9938 60.5681 32.6851V59.6876Z" fill="#6F67F0"/>
<path d="M50.4271 32.6511H44.8986C42.9879 32.6511 41.4333 34.3044 41.4333 36.3364V56.127C41.4333 56.7983 41.9451 57.3426 42.5764 57.3426C43.2076 57.3426 43.7194 56.7983 43.7194 56.127V36.3364C43.7194 35.6449 44.2484 35.0824 44.8986 35.0824H50.4271C51.0584 35.0824 51.5702 34.5383 51.5702 33.8668C51.5702 33.1954 51.0584 32.6511 50.4271 32.6511Z" fill="#6F67F0"/>
</svg>
