<svg width="109" height="109" viewBox="0 0 109 109" fill="none" xmlns="http://www.w3.org/2000/svg">
<circle cx="54.5" cy="54.5" r="54.5" fill="#FAFAFC"/>
<path d="M79.3203 68.8186C80.1697 68.8186 80.8584 68.13 80.8584 67.2806V34.1726C80.8584 33.3232 80.1697 32.6345 79.3203 32.6345H30.2567C29.4072 32.6345 28.7186 33.3232 28.7186 34.1726V67.2806C28.7186 68.13 29.4072 68.8186 30.2567 68.8186H46.5368V73.2864H30.2567C29.4072 73.2864 28.7186 73.9751 28.7186 74.8245C28.7186 75.6739 29.4072 76.3626 30.2567 76.3626H48.0749H61.5021H79.3203C80.1697 76.3626 80.8584 75.6739 80.8584 74.8245C80.8584 73.9751 80.1697 73.2864 79.3203 73.2864H63.0402V68.8186H79.3203ZM59.9639 73.2864H49.6128V68.8186H59.9639V73.2864ZM61.502 65.7425H48.0749H31.7947V35.7107H77.7822V65.7425H61.502Z" fill="#6F67F0"/>
<path d="M72.6758 38.1338H35.756C34.9064 38.1338 34.2179 38.8225 34.2179 39.6719V61.1557C34.2179 62.0054 34.9064 62.6938 35.756 62.6938C36.6054 62.6938 37.2941 62.0054 37.2941 61.1557V41.21H72.6758C73.5252 41.21 74.2139 40.5215 74.2139 39.6719C74.2139 38.8225 73.5252 38.1338 72.6758 38.1338Z" fill="#6F67F0"/>
</svg>
