<svg width="30" height="34" viewBox="0 0 30 34" fill="none" xmlns="http://www.w3.org/2000/svg">
<path d="M29.2436 23.4822L26.0043 17.5018V11.275C26.0043 5.05793 20.9464 0 14.7294 0C8.51234 0 3.45441 5.05793 3.45441 11.275V17.5018L0.21494 23.4822C0.0680329 23.7533 -0.00590596 24.058 0.000368541 24.3664C0.00664304 24.6747 0.0929156 24.9762 0.250733 25.2411C0.40855 25.5061 0.632497 25.7255 0.900633 25.8779C1.16877 26.0303 1.47189 26.1104 1.7803 26.1104H8.22891C8.21126 26.306 8.20169 26.5036 8.20169 26.7038C8.20169 28.4351 8.88942 30.0954 10.1136 31.3196C11.3377 32.5437 12.9981 33.2314 14.7293 33.2314C16.4605 33.2314 18.1208 32.5437 19.345 31.3196C20.5692 30.0954 21.2569 28.4351 21.2569 26.7038C21.2569 26.5036 21.2473 26.306 21.2297 26.1104H27.6783C27.9867 26.1104 28.2898 26.0302 28.5578 25.8778C28.8259 25.7254 29.0498 25.506 29.2076 25.2411C29.3654 24.9761 29.4517 24.6747 29.458 24.3664C29.4642 24.0581 29.3903 23.7534 29.2434 23.4822H29.2436ZM18.8833 26.7038C18.8838 27.2747 18.7666 27.8395 18.539 28.363C18.3115 28.8866 17.9784 29.3576 17.5607 29.7467C17.143 30.1358 16.6496 30.4346 16.1113 30.6245C15.573 30.8145 15.0013 30.8914 14.4319 30.8505C13.8625 30.8096 13.3076 30.6518 12.802 30.3869C12.2963 30.1221 11.8506 29.7558 11.4928 29.311C11.135 28.8662 10.8727 28.3525 10.7222 27.8018C10.5718 27.2511 10.5365 26.6754 10.6185 26.1104H18.8401C18.8687 26.3069 18.8831 26.5053 18.8833 26.7038ZM2.77658 23.7367L5.82809 18.1033V11.275C5.82809 8.91419 6.7659 6.65011 8.43521 4.9808C10.1045 3.31149 12.3686 2.37367 14.7294 2.37367C17.0901 2.37367 19.3542 3.31149 21.0235 4.9808C22.6928 6.65011 23.6306 8.91419 23.6306 11.275V18.1033L26.682 23.7367H2.77658Z" fill="white"/>
</svg>
