<svg width="109" height="101" viewBox="0 0 109 101" fill="none" xmlns="http://www.w3.org/2000/svg">
<ellipse cx="54.5" cy="50.6153" rx="54.5" ry="50.3077" fill="#FAFAFC"/>
<path d="M82.8286 34.0469H26.4868C25.5563 34.0469 24.8024 34.7429 24.8024 35.6017V65.6288C24.8024 66.4875 25.5563 67.1837 26.4868 67.1837H82.8286C83.7588 67.1837 84.513 66.4875 84.513 65.6288V35.6017C84.513 34.7429 83.7588 34.0469 82.8286 34.0469ZM28.1712 64.074V59.5563C30.5643 60.1223 32.4521 61.8648 33.0651 64.074H28.1712ZM33.0654 37.1565C32.4521 39.3656 30.5643 41.108 28.1712 41.674V37.1565H33.0654ZM81.1442 64.074H76.2503C76.8633 61.8648 78.7511 60.1223 81.1442 59.5563V64.074ZM81.1442 56.3825C76.8898 57.041 73.5252 60.147 72.8119 64.074H36.5035C35.7902 60.1469 32.4256 57.0408 28.1712 56.3825V44.8477C32.4256 44.1895 35.7905 41.0835 36.5035 37.1565H72.8114C73.5248 41.0835 76.8898 44.1895 81.1441 44.8477V56.3825H81.1442ZM81.1442 41.674C78.7508 41.108 76.863 39.3656 76.25 37.1565H81.1442V41.674Z" fill="#6F67F0"/>
<path d="M54.6574 41.2378C49.056 41.2378 44.4987 45.4445 44.4987 50.6153C44.4987 55.7859 49.056 59.9926 54.6574 59.9926C60.2589 59.9926 64.8162 55.7859 64.8162 50.6153C64.8162 45.4445 60.2591 41.2378 54.6574 41.2378ZM47.8675 50.6153C47.8675 47.1591 50.9136 44.3475 54.6574 44.3475C58.4016 44.3475 61.4474 47.1591 61.4474 50.6153C61.4474 54.0713 58.4016 56.8829 54.6574 56.8829C50.9136 56.8829 47.8675 54.0713 47.8675 50.6153Z" fill="#6F67F0"/>
</svg>
