<svg width="109" height="109" viewBox="0 0 109 109" fill="none" xmlns="http://www.w3.org/2000/svg">
<circle cx="54.5" cy="54.5" r="54.5" fill="#FAFAFC"/>
<g clip-path="url(#clip0_339255_311)">
<path d="M48.5839 60.7369C48.902 61.0548 49.3186 61.2137 49.7352 61.2137C50.152 61.2137 50.5686 61.0547 50.8867 60.7369L68.0894 43.5343C68.7253 42.8983 68.7253 41.8673 68.0894 41.2315C67.4537 40.5957 66.4224 40.5957 65.7865 41.2315L48.5839 58.434C47.9481 59.07 47.9481 60.1009 48.5839 60.7369Z" fill="#6F67F0"/>
<path d="M82.8081 36.4852C82.1791 34.6028 80.7865 32.5474 78.7798 30.5413C76.7575 28.5187 73.6781 26.1077 70.4925 26.1077C69.0634 26.1077 67.7468 26.6101 66.6747 27.5625C66.6187 27.6053 66.5654 27.6522 66.5151 27.7025L60.3375 33.8799H28.0634C27.1642 33.8799 26.4351 34.609 26.4351 35.5083V81.9164C26.4351 82.8157 27.1642 83.5448 28.0634 83.5448H74.4716C75.3709 83.5448 76.1 82.8157 76.1 81.9164V48.6499C76.1 48.5484 76.0894 48.4496 76.0716 48.3533L81.4795 42.9452C81.4903 42.9345 81.5012 42.9239 81.5118 42.9131C81.5121 42.9129 81.5123 42.9127 81.5126 42.9124L81.6186 42.8063C81.6687 42.7562 81.7145 42.704 81.7566 42.6493C83.2374 40.9882 83.6014 38.8602 82.8081 36.4852ZM48.2698 70.1976L36.7808 73.5135L39.3896 61.3174L48.2698 70.1976ZM51.2485 68.5705L40.7507 58.0728L65.2432 33.5799L75.741 44.0777L51.2485 68.5705ZM72.8433 80.2881H29.6918V37.1366H57.0811L37.259 56.9588C37.0369 57.181 36.8837 57.4625 36.818 57.7697L33.0275 75.4912C32.9077 76.051 33.0908 76.6326 33.5096 77.023C33.8152 77.3077 34.2133 77.4602 34.6201 77.4602C34.7071 77.4602 66.0365 77.4602 66.0365 77.4602C66.936 77.4602 67.6648 76.7311 67.6648 75.8318C67.6648 74.9326 66.936 74.2035 66.0365 74.2035H46.1342L51.4762 72.6617C51.7406 72.5853 51.9814 72.4432 52.1761 72.2486L72.8433 51.5815V80.2881ZM79.2738 40.5391C79.256 40.5581 79.2387 40.5775 79.2221 40.5971L79.2104 40.6087C79.2048 40.6142 79.199 40.6198 79.1934 40.6254L78.0439 41.7747L67.5461 31.277L68.722 30.1011C68.7424 30.0838 68.7626 30.0661 68.7821 30.0475C69.281 29.5815 69.8246 29.3644 70.4925 29.3644C72.0844 29.3644 74.266 30.6326 76.4771 32.8442C77.6883 34.0551 81.4695 38.1891 79.2738 40.5391Z" fill="#6F67F0"/>
</g>
<defs>
<clipPath id="clip0_339255_311">
<rect width="57.4371" height="57.4371" fill="white" transform="translate(26.1078 26.1077)"/>
</clipPath>
</defs>
</svg>
