<svg width="32" height="34" viewBox="0 0 32 34" fill="none" xmlns="http://www.w3.org/2000/svg">
<path d="M15.7892 10.5798C14.5777 10.5798 13.3935 10.9391 12.3862 11.6121C11.379 12.2851 10.5939 13.2418 10.1303 14.361C9.66672 15.4802 9.54542 16.7117 9.78176 17.8999C10.0181 19.0881 10.6015 20.1794 11.4581 21.0361C12.3147 21.8927 13.4061 22.476 14.5942 22.7124C15.7824 22.9487 17.0139 22.8274 18.1332 22.3638C19.2524 21.9002 20.209 21.1152 20.882 20.1079C21.5551 19.1006 21.9143 17.9164 21.9143 16.7049C21.9125 15.081 21.2665 13.5242 20.1183 12.3759C18.97 11.2276 17.4131 10.5817 15.7892 10.5798ZM15.7892 20.6027C15.0183 20.6027 14.2647 20.3741 13.6237 19.9459C12.9827 19.5176 12.4831 18.9088 12.1881 18.1966C11.8931 17.4843 11.8159 16.7006 11.9663 15.9445C12.1167 15.1884 12.4879 14.4939 13.033 13.9488C13.5781 13.4037 14.2727 13.0324 15.0288 12.882C15.7849 12.7316 16.5686 12.8088 17.2808 13.1039C17.993 13.3989 18.6018 13.8985 19.0301 14.5394C19.4584 15.1804 19.687 15.934 19.687 16.7049C19.6858 17.7384 19.2748 18.7291 18.5441 19.4598C17.8133 20.1906 16.8226 20.6016 15.7892 20.6027Z" fill="white"/>
<path d="M31.0708 21.3209L28.8595 19.5006C29.2515 17.6574 29.2515 15.7524 28.8595 13.9092L31.0708 12.0888C31.3258 11.8799 31.4981 11.5869 31.5569 11.2625C31.6156 10.9381 31.557 10.6033 31.3914 10.3182L29.1215 6.38676C28.9574 6.10071 28.6968 5.88245 28.3864 5.7711C28.0759 5.65975 27.736 5.6626 27.4275 5.77912L24.7435 6.78468C23.3454 5.52143 21.6959 4.56808 19.9033 3.98718L19.4324 1.16329C19.3791 0.837847 19.2116 0.54203 18.96 0.328861C18.7083 0.115692 18.389 -0.000892093 18.0592 5.14046e-06H13.5195C13.1898 -0.000880675 12.8705 0.115699 12.6189 0.328851C12.3672 0.542003 12.1997 0.837796 12.1464 1.16322L11.6757 3.98718C9.88318 4.56806 8.23369 5.52142 6.83551 6.78468L4.15125 5.77898C3.84277 5.66253 3.50289 5.65974 3.19253 5.7711C2.88217 5.88245 2.62161 6.10068 2.45752 6.38669L0.187676 10.3184C0.0221316 10.6035 -0.0364932 10.9383 0.0223013 11.2627C0.0810959 11.5871 0.253469 11.8801 0.508548 12.089L2.71965 13.9092C2.32764 15.7524 2.32764 17.6574 2.71965 19.5006L0.50834 21.3209C0.253301 21.5299 0.0809748 21.8228 0.0222197 22.1472C-0.0365354 22.4717 0.0221175 22.8064 0.187676 23.0916L2.45759 27.023C2.62169 27.309 2.8823 27.5273 3.19271 27.6386C3.50311 27.75 3.84303 27.7471 4.15153 27.6306L6.83558 26.625C8.23376 27.8883 9.88325 28.8417 11.6758 29.4226L12.1465 32.2464C12.1998 32.5719 12.3673 32.8677 12.6189 33.0808C12.8705 33.294 13.1898 33.4106 13.5195 33.4097H18.0592C18.389 33.4106 18.7083 33.2941 18.9599 33.0809C19.2116 32.8677 19.379 32.5719 19.4324 32.2465L19.9031 29.4226C21.6957 28.8417 23.3451 27.8883 24.7433 26.625L27.4275 27.6307C27.736 27.7472 28.0759 27.75 28.3862 27.6386C28.6966 27.5273 28.9572 27.309 29.1213 27.023L31.391 23.0913C31.5566 22.8063 31.6153 22.4716 31.5566 22.1472C31.498 21.8228 31.3257 21.5299 31.0708 21.3209ZM27.5463 25.2967L24.1978 24.0421L23.6907 24.5526C22.2956 25.9588 20.5506 26.9673 18.6358 27.4741L17.9397 27.6575L17.3519 31.1824H14.2274L13.6398 27.6575L12.9438 27.4741C11.0289 26.9673 9.28392 25.9588 7.88883 24.5526L7.38176 24.0421L4.03265 25.2967L2.47067 22.5907L5.22899 20.3199L5.04106 19.6258C4.52424 17.7128 4.52424 15.6969 5.04106 13.784L5.22899 13.0899L2.47067 10.8191L4.033 8.11307L7.38155 9.3676L7.88862 8.85713C9.28372 7.45097 11.0287 6.44247 12.9436 5.93566L13.6396 5.75218L14.2271 2.22732H17.3519L17.9395 5.75218L18.6355 5.93566C20.5504 6.44247 22.2954 7.45097 23.6905 8.85713L24.1976 9.3676L27.5461 8.11307L29.1085 10.819L26.3502 13.0899L26.5381 13.784C27.055 15.6969 27.055 17.7128 26.5381 19.6258L26.3502 20.3199L29.1085 22.5906L27.5463 25.2967Z" fill="white"/>
</svg>
