<svg width="12" height="12" viewBox="0 0 12 12" fill="none" xmlns="http://www.w3.org/2000/svg">
<mask id="path-1-inside-1_339357_681" fill="white">
<path d="M11.9496 4.32278C11.8923 4.14478 11.7868 3.98613 11.6448 3.86438C11.5028 3.74263 11.33 3.66255 11.1453 3.63298L8.24756 3.16206L6.90426 0.55171C6.8187 0.385531 6.68901 0.246132 6.52943 0.148809C6.36986 0.0514862 6.18655 0 5.99964 0C5.81273 0 5.62942 0.0514862 5.46984 0.148809C5.31027 0.246132 5.18058 0.385531 5.09502 0.55171L3.75172 3.16206L0.854041 3.63298C0.669558 3.66301 0.496911 3.74327 0.355041 3.86496C0.213172 3.98665 0.107563 4.14507 0.0498032 4.32283C-0.00795715 4.5006 -0.0156372 4.69083 0.0276057 4.87267C0.0708486 5.05451 0.163343 5.22093 0.294941 5.35366L2.36244 7.43786L1.91494 10.3392C1.88623 10.524 1.90903 10.7132 1.98085 10.8858C2.05267 11.0585 2.17072 11.208 2.32202 11.318C2.47332 11.4279 2.652 11.494 2.83842 11.5089C3.02483 11.5238 3.21176 11.4871 3.37864 11.4027L5.99964 10.0804L8.62071 11.4027C8.78761 11.4869 8.97449 11.5235 9.16083 11.5085C9.34718 11.4935 9.52578 11.4274 9.67702 11.3175C9.82827 11.2076 9.9463 11.0582 10.0182 10.8856C10.09 10.713 10.113 10.524 10.0844 10.3392L9.63691 7.43786L11.7044 5.35366C11.8364 5.22119 11.9292 5.05477 11.9725 4.87282C12.0158 4.69088 12.0079 4.50051 11.9496 4.32278ZM11.1364 4.79028L8.78464 7.16101L9.29374 10.4613C9.30005 10.5008 9.29529 10.5413 9.28 10.5783C9.26471 10.6153 9.23947 10.6473 9.20709 10.6708C9.17471 10.6943 9.13645 10.7084 9.09654 10.7116C9.05664 10.7147 9.01665 10.7067 8.98101 10.6885L5.99964 9.18441L3.01824 10.6885C2.9826 10.7067 2.94262 10.7147 2.90271 10.7116C2.86281 10.7085 2.82455 10.6944 2.79217 10.6709C2.75978 10.6473 2.73455 10.6153 2.71925 10.5783C2.70396 10.5413 2.69921 10.5008 2.70552 10.4613L3.21464 7.16101L0.862916 4.79026C0.834832 4.76189 0.815099 4.72633 0.805878 4.68749C0.796658 4.64864 0.798306 4.60801 0.810642 4.57004C0.822978 4.53208 0.845526 4.49824 0.875815 4.47223C0.906105 4.44622 0.942968 4.42906 0.982366 4.42261L4.27839 3.88696L5.80636 0.917785C5.82464 0.882269 5.85234 0.852473 5.88644 0.831671C5.92053 0.810868 5.9597 0.799863 5.99964 0.799863C6.03958 0.799863 6.07875 0.810868 6.11284 0.831671C6.14694 0.852473 6.17464 0.882269 6.19291 0.917785L7.72089 3.88696L11.0169 4.42261C11.0563 4.42906 11.0932 4.44622 11.1235 4.47223C11.1538 4.49824 11.1763 4.53208 11.1886 4.57004C11.201 4.60801 11.2026 4.64864 11.1934 4.68749C11.1842 4.72633 11.1644 4.76189 11.1364 4.79026L11.1364 4.79028Z"/>
</mask>
<path d="M11.9496 4.32278C11.8923 4.14478 11.7868 3.98613 11.6448 3.86438C11.5028 3.74263 11.33 3.66255 11.1453 3.63298L8.24756 3.16206L6.90426 0.55171C6.8187 0.385531 6.68901 0.246132 6.52943 0.148809C6.36986 0.0514862 6.18655 0 5.99964 0C5.81273 0 5.62942 0.0514862 5.46984 0.148809C5.31027 0.246132 5.18058 0.385531 5.09502 0.55171L3.75172 3.16206L0.854041 3.63298C0.669558 3.66301 0.496911 3.74327 0.355041 3.86496C0.213172 3.98665 0.107563 4.14507 0.0498032 4.32283C-0.00795715 4.5006 -0.0156372 4.69083 0.0276057 4.87267C0.0708486 5.05451 0.163343 5.22093 0.294941 5.35366L2.36244 7.43786L1.91494 10.3392C1.88623 10.524 1.90903 10.7132 1.98085 10.8858C2.05267 11.0585 2.17072 11.208 2.32202 11.318C2.47332 11.4279 2.652 11.494 2.83842 11.5089C3.02483 11.5238 3.21176 11.4871 3.37864 11.4027L5.99964 10.0804L8.62071 11.4027C8.78761 11.4869 8.97449 11.5235 9.16083 11.5085C9.34718 11.4935 9.52578 11.4274 9.67702 11.3175C9.82827 11.2076 9.9463 11.0582 10.0182 10.8856C10.09 10.713 10.113 10.524 10.0844 10.3392L9.63691 7.43786L11.7044 5.35366C11.8364 5.22119 11.9292 5.05477 11.9725 4.87282C12.0158 4.69088 12.0079 4.50051 11.9496 4.32278ZM11.1364 4.79028L8.78464 7.16101L9.29374 10.4613C9.30005 10.5008 9.29529 10.5413 9.28 10.5783C9.26471 10.6153 9.23947 10.6473 9.20709 10.6708C9.17471 10.6943 9.13645 10.7084 9.09654 10.7116C9.05664 10.7147 9.01665 10.7067 8.98101 10.6885L5.99964 9.18441L3.01824 10.6885C2.9826 10.7067 2.94262 10.7147 2.90271 10.7116C2.86281 10.7085 2.82455 10.6944 2.79217 10.6709C2.75978 10.6473 2.73455 10.6153 2.71925 10.5783C2.70396 10.5413 2.69921 10.5008 2.70552 10.4613L3.21464 7.16101L0.862916 4.79026C0.834832 4.76189 0.815099 4.72633 0.805878 4.68749C0.796658 4.64864 0.798306 4.60801 0.810642 4.57004C0.822978 4.53208 0.845526 4.49824 0.875815 4.47223C0.906105 4.44622 0.942968 4.42906 0.982366 4.42261L4.27839 3.88696L5.80636 0.917785C5.82464 0.882269 5.85234 0.852473 5.88644 0.831671C5.92053 0.810868 5.9597 0.799863 5.99964 0.799863C6.03958 0.799863 6.07875 0.810868 6.11284 0.831671C6.14694 0.852473 6.17464 0.882269 6.19291 0.917785L7.72089 3.88696L11.0169 4.42261C11.0563 4.42906 11.0932 4.44622 11.1235 4.47223C11.1538 4.49824 11.1763 4.53208 11.1886 4.57004C11.201 4.60801 11.2026 4.64864 11.1934 4.68749C11.1842 4.72633 11.1644 4.76189 11.1364 4.79026L11.1364 4.79028Z" fill="#685FEE"/>
<path d="M11.1453 3.63298L1.52064 62.856L1.59065 62.8674L1.6607 62.8786L11.1453 3.63298ZM8.24756 3.16206L-45.1028 30.6164L-31.253 57.5298L-1.37708 62.3851L8.24756 3.16206ZM6.90426 0.55171L60.2546 -26.9027L60.2482 -26.915L6.90426 0.55171ZM5.99964 0V60V0ZM5.09502 0.55171L-48.249 -26.915L-48.2553 -26.9027L5.09502 0.55171ZM3.75172 3.16206L13.3765 62.3851L43.2523 57.5297L57.102 30.6164L3.75172 3.16206ZM0.854041 3.63298L-8.77077 -55.59L-8.77778 -55.5889L-8.7848 -55.5877L0.854041 3.63298ZM0.294941 5.35366L-42.3129 47.5978L-42.3074 47.6034L-42.3018 47.6091L0.294941 5.35366ZM2.36244 7.43786L61.6613 16.5839L66.275 -13.3295L44.9592 -34.8176L2.36244 7.43786ZM1.91494 10.3392L61.2034 19.5519L61.2086 19.5186L61.2138 19.4853L1.91494 10.3392ZM3.37864 11.4027L-23.6461 -42.1665L-23.675 -42.152L-23.7038 -42.1374L3.37864 11.4027ZM5.99964 10.0804L33.0238 -43.4891L5.99925 -57.1221L-21.0251 -43.4888L5.99964 10.0804ZM8.62071 11.4027L35.6571 -42.1607L35.6449 -42.1669L8.62071 11.4027ZM10.0844 10.3392L-49.2144 19.4853L-49.2132 19.4931L-49.212 19.5008L10.0844 10.3392ZM9.63691 7.43786L-32.9598 -34.8176L-54.2757 -13.3295L-49.6619 16.5839L9.63691 7.43786ZM11.7044 5.35366L-30.7957 -36.9989L-30.8441 -36.9504L-30.8923 -36.9018L11.7044 5.35366ZM11.1364 4.79028L53.7329 47.0459L95.8191 4.62016L53.5628 -37.6361L11.1364 4.79028ZM8.78464 7.16101L-33.8119 -35.0946L-55.1286 -13.6059L-50.514 16.3085L8.78464 7.16101ZM9.29374 10.4613L-50.0049 19.6087L-49.9807 19.7651L-49.9558 19.9213L9.29374 10.4613ZM8.98101 10.6885L36.289 -42.737L36.1475 -42.8093L36.0057 -42.8808L8.98101 10.6885ZM5.99964 9.18441L33.0244 -44.3848L5.99931 -58.0185L-21.0256 -44.3846L5.99964 9.18441ZM3.01824 10.6885L-24.007 -42.8805L-24.1486 -42.8091L-24.2897 -42.7369L3.01824 10.6885ZM2.70552 10.4613L61.955 19.9214L61.98 19.7653L62.0041 19.6091L2.70552 10.4613ZM3.21464 7.16101L62.5132 16.3088L67.1279 -13.6054L45.8116 -35.0941L3.21464 7.16101ZM0.862916 4.79026L-41.7802 46.9988L-41.7572 47.0221L-41.7341 47.0454L0.862916 4.79026ZM0.982366 4.42261L-8.6422 -54.8004L-8.67563 -54.795L-8.70905 -54.7895L0.982366 4.42261ZM4.27839 3.88696L13.903 63.11L43.7787 58.2548L57.6286 31.3416L4.27839 3.88696ZM5.80636 0.917785L59.1565 28.3725L59.1604 28.3649L5.80636 0.917785ZM5.99964 0.799863V-59.2001V0.799863ZM6.19291 0.917785L-47.1611 28.365L-47.1573 28.3725L6.19291 0.917785ZM7.72089 3.88696L-45.6293 31.3416L-31.7794 58.2548L-1.90368 63.11L7.72089 3.88696ZM11.0169 4.42261L20.7083 -54.7895L20.6749 -54.795L20.6415 -54.8004L11.0169 4.42261ZM11.1364 4.79026L-31.5068 -37.4183L-73.4997 5.007L-31.29 47.2167L11.1364 4.79026ZM69.0571 -14.0821C65.6032 -24.799 59.2511 -34.3511 50.7039 -41.681L-27.4143 49.4098C-35.6775 42.3234 -41.8186 33.0886 -45.1578 22.7277L69.0571 -14.0821ZM50.7039 -41.681C42.1568 -49.0109 31.748 -53.8327 20.6299 -55.6126L1.6607 62.8786C-9.08812 61.1578 -19.1511 56.4962 -27.4143 49.4098L50.7039 -41.681ZM20.7699 -55.59L17.8722 -56.061L-1.37708 62.3851L1.52064 62.856L20.7699 -55.59ZM61.5979 -24.2923L60.2546 -26.9027L-46.4461 28.0061L-45.1028 30.6164L61.5979 -24.2923ZM60.2482 -26.915C55.1171 -36.8804 47.34 -45.2399 37.7704 -51.0762L-24.7115 51.3738C-33.962 45.7322 -41.4797 37.6515 -46.4397 28.0184L60.2482 -26.915ZM37.7704 -51.0762C28.2008 -56.9125 17.2085 -60 5.99964 -60V60C-4.83541 60 -15.4611 57.0154 -24.7115 51.3738L37.7704 -51.0762ZM5.99964 -60C-5.20924 -60 -16.2015 -56.9125 -25.7711 -51.0762L36.7108 51.3738C27.4604 57.0154 16.8347 60 5.99964 60V-60ZM-25.7711 -51.0762C-35.3407 -45.2399 -43.1178 -36.8804 -48.249 -26.915L58.439 28.0184C53.479 37.6515 45.9613 45.7322 36.7108 51.3738L-25.7711 -51.0762ZM-48.2553 -26.9027L-49.5986 -24.2923L57.102 30.6164L58.4453 28.0061L-48.2553 -26.9027ZM-5.8731 -56.0609L-8.77077 -55.59L10.4789 62.856L13.3765 62.3851L-5.8731 -56.0609ZM-8.7848 -55.5877C-19.8479 -53.7871 -30.2012 -48.9739 -38.7089 -41.6764L39.4189 49.4063C31.1951 56.4605 21.187 61.1131 10.4929 62.8537L-8.7848 -55.5877ZM-38.7089 -41.6764C-47.2165 -34.3788 -53.5496 -24.8788 -57.0134 -14.2188L57.113 22.8644C53.7648 33.1689 47.6428 42.3521 39.4189 49.4063L-38.7089 -41.6764ZM-57.0134 -14.2188C-60.4772 -3.55871 -60.9377 7.84946 -58.3445 18.754L58.3998 -9.00868C60.9065 1.53221 60.4613 12.5599 57.113 22.8644L-57.0134 -14.2188ZM-58.3445 18.754C-55.7514 29.6586 -50.2046 39.6382 -42.3129 47.5978L42.9028 -36.8905C50.5313 -29.1963 55.8931 -19.5495 58.3998 -9.00868L-58.3445 18.754ZM-42.3018 47.6091L-40.2343 49.6933L44.9592 -34.8176L42.8917 -36.9018L-42.3018 47.6091ZM-56.9364 -1.70823L-57.3839 1.19315L61.2138 19.4853L61.6613 16.5839L-56.9364 -1.70823ZM-57.3736 1.12656C-59.0967 12.216 -57.7281 23.5658 -53.4183 33.9278L57.38 -12.1561C61.5462 -2.1395 62.8692 8.83207 61.2034 19.5519L-57.3736 1.12656ZM-53.4183 33.9278C-49.1085 44.2897 -42.0245 53.2624 -32.9453 59.8588L37.5893 -37.2229C46.3659 -30.8463 53.2139 -22.1727 57.38 -12.1561L-53.4183 33.9278ZM-32.9453 59.8588C-23.8661 66.4553 -13.1435 70.42 -1.957 71.317L7.63383 -48.2992C18.4475 -47.4321 28.8127 -43.5996 37.5893 -37.2229L-32.9453 59.8588ZM-1.957 71.317C9.22951 72.2139 20.4468 70.0084 30.4611 64.9428L-23.7038 -42.1374C-14.0233 -47.0342 -3.17984 -49.1662 7.63383 -48.2992L-1.957 71.317ZM30.4034 64.9719L33.0244 63.6497L-21.0251 -43.4888L-23.6461 -42.1665L30.4034 64.9719ZM-21.0245 63.65L-18.4034 64.9722L35.6449 -42.1669L33.0238 -43.4891L-21.0245 63.65ZM-18.4156 64.9661C-8.40491 70.019 2.80464 72.2156 13.982 71.3145L4.33966 -48.2975C15.1443 -49.1685 25.9801 -47.0452 35.6571 -42.1607L-18.4156 64.9661ZM13.982 71.3145C25.1593 70.4135 35.8723 66.4497 44.9443 59.8584L-25.5903 -37.2233C-16.8207 -43.5949 -6.46495 -47.4265 4.33966 -48.2975L13.982 71.3145ZM44.9443 59.8584C54.0164 53.2671 61.0966 44.3033 65.4074 33.9514L-45.3711 -12.1802C-41.204 -22.1869 -34.3599 -30.8518 -25.5903 -37.2233L44.9443 59.8584ZM65.4074 33.9514C69.7183 23.5994 71.0931 12.2597 69.3808 1.17762L-49.212 19.5008C-50.8671 8.78829 -49.5382 -2.17331 -45.3711 -12.1802L65.4074 33.9514ZM69.3832 1.19315L68.9357 -1.70822L-49.6619 16.5839L-49.2144 19.4853L69.3832 1.19315ZM52.2336 49.6933L54.3011 47.6091L-30.8923 -36.9018L-32.9598 -34.8176L52.2336 49.6933ZM54.2045 47.7062C62.1522 39.7308 67.738 29.7118 70.3437 18.7582L-46.3987 -9.01254C-43.8796 -19.6023 -38.4794 -29.2885 -30.7957 -36.9989L54.2045 47.7062ZM70.3437 18.7582C72.9494 7.80451 72.4732 -3.65653 68.968 -14.3563L-45.0687 23.0018C-48.4575 12.6576 -48.9178 1.57725 -46.3987 -9.01254L70.3437 18.7582ZM-31.4601 -37.4653L-33.8119 -35.0946L51.3812 49.4166L53.7329 47.0459L-31.4601 -37.4653ZM-50.514 16.3085L-50.0049 19.6087L68.5923 1.31378L68.0832 -1.98646L-50.514 16.3085ZM-49.9558 19.9213C-51.6962 9.02073 -50.3846 -2.14842 -46.1669 -12.3486L64.7269 33.5051C68.9752 23.231 70.2963 11.9808 68.5433 1.0012L-49.9558 19.9213ZM-46.1669 -12.3486C-41.9492 -22.5489 -34.9897 -31.3827 -26.0592 -37.8708L44.4734 59.2124C53.4686 52.6772 60.4786 43.7794 64.7269 33.5051L-46.1669 -12.3486ZM-26.0592 -37.8708C-17.1289 -44.3588 -6.5768 -48.2476 4.42785 -49.1065L13.7652 70.5296C24.8497 69.6645 35.4783 65.7475 44.4734 59.2124L-26.0592 -37.8708ZM4.42785 -49.1065C15.4321 -49.9654 26.4599 -47.761 36.289 -42.737L-18.3269 64.1139C-8.42657 69.1744 2.68114 71.3947 13.7652 70.5296L4.42785 -49.1065ZM36.0057 -42.8808L33.0244 -44.3848L-21.0251 62.7537L-18.0437 64.2577L36.0057 -42.8808ZM-21.0256 -44.3846L-24.007 -42.8805L30.0435 64.2575L33.0249 62.7534L-21.0256 -44.3846ZM-24.2897 -42.7369C-14.4613 -47.7606 -3.43367 -49.9654 7.57141 -49.1065L-1.76598 70.5297C9.3189 71.3948 20.4265 69.1741 30.3262 64.1139L-24.2897 -42.7369ZM7.57141 -49.1065C18.5761 -48.2476 29.1282 -44.3588 38.0585 -37.8708L-32.4741 59.2125C-23.4791 65.7475 -12.8504 69.6646 -1.76598 70.5297L7.57141 -49.1065ZM38.0585 -37.8708C46.9887 -31.3828 53.9483 -22.5491 58.1662 -12.3485L-52.7276 33.5052C-48.4792 43.7797 -41.4691 52.6775 -32.4741 59.2125L38.0585 -37.8708ZM58.1662 -12.3485C62.384 -2.14801 63.6954 9.02117 61.955 19.9214L-56.544 1.00125C-58.297 11.9805 -56.9761 23.2307 -52.7276 33.5052L58.1662 -12.3485ZM62.0041 19.6091L62.5132 16.3088L-56.0839 -1.98676L-56.593 1.31354L62.0041 19.6091ZM45.8116 -35.0941L43.4599 -37.4649L-41.7341 47.0454L-39.3823 49.4162L45.8116 -35.0941ZM43.5061 -37.4183C51.2253 -29.6196 56.6492 -19.8467 59.1836 -9.17027L-57.5719 18.5452C-55.0191 29.2994 -49.5556 39.1434 -41.7802 46.9988L43.5061 -37.4183ZM59.1836 -9.17027C61.718 1.50604 61.265 12.674 57.8743 23.1101L-56.2531 -13.97C-59.6684 -3.45798 -60.1247 7.79125 -57.5719 18.5452L59.1836 -9.17027ZM57.8743 23.1101C54.4836 33.5463 48.286 42.8478 39.9605 49.9957L-38.2089 -41.0512C-46.5949 -33.8513 -52.8377 -24.4821 -56.2531 -13.97L57.8743 23.1101ZM39.9605 49.9957C31.6351 57.1436 21.5029 61.8623 10.6738 63.6347L-8.70905 -54.7895C-19.6169 -53.0042 -29.8229 -48.2511 -38.2089 -41.0512L39.9605 49.9957ZM10.6069 63.6456L13.903 63.11L-5.34618 -55.3361L-8.6422 -54.8004L10.6069 63.6456ZM57.6286 31.3416L59.1565 28.3725L-47.5438 -26.5369L-49.0718 -23.5677L57.6286 31.3416ZM59.1604 28.3649C54.135 38.1338 46.5149 46.3291 37.1368 52.051L-25.3639 -50.3876C-34.8102 -44.6242 -42.4857 -36.3693 -47.5477 -26.5294L59.1604 28.3649ZM37.1368 52.051C27.7587 57.7728 16.9853 60.7999 5.99964 60.7999V-59.2001C-5.06595 -59.2001 -15.9176 -56.1511 -25.3639 -50.3876L37.1368 52.051ZM5.99964 60.7999C-4.98618 60.7999 -15.7595 57.7727 -25.1375 52.051L37.3632 -50.3876C27.917 -56.151 17.0653 -59.2001 5.99964 -59.2001V60.7999ZM-25.1375 52.051C-34.5156 46.3291 -42.1357 38.1338 -47.1611 28.3649L59.547 -26.5294C54.485 -36.3693 46.8095 -44.6242 37.3632 -50.3876L-25.1375 52.051ZM-47.1573 28.3725L-45.6293 31.3416L61.0711 -23.5677L59.5431 -26.5369L-47.1573 28.3725ZM-1.90368 63.11L1.39235 63.6456L20.6415 -54.8004L17.3455 -55.3361L-1.90368 63.11ZM1.3255 63.6347C-9.50364 61.8623 -19.6359 57.1436 -27.9613 49.9957L50.2082 -41.0512C41.8222 -48.2511 31.6163 -53.0042 20.7083 -54.7895L1.3255 63.6347ZM-27.9613 49.9957C-36.287 42.8475 -42.4845 33.5459 -45.8751 23.1101L68.2523 -13.97C64.8371 -24.4817 58.5945 -33.851 50.2082 -41.0512L-27.9613 49.9957ZM-45.8751 23.1101C-49.2656 12.6744 -49.7188 1.50643 -47.1844 -9.17027L69.5712 18.5452C72.124 7.79086 71.6676 -3.45836 68.2523 -13.97L-45.8751 23.1101ZM-47.1844 -9.17027C-44.6499 -19.8469 -39.2259 -29.6197 -31.5068 -37.4183L53.7795 46.9988C61.5548 39.1435 67.0183 29.2996 69.5712 18.5452L-47.1844 -9.17027ZM-31.29 47.2167L-31.29 47.2167L53.5628 -37.6361L53.5628 -37.6362L-31.29 47.2167Z" fill="#6F67F0" mask="url(#path-1-inside-1_339357_681)"/>
</svg>
