<svg width="99" height="99" viewBox="0 0 99 99" fill="none" xmlns="http://www.w3.org/2000/svg">
<circle cx="49.5" cy="49.5" r="49.5" fill="#FAFAFC"/>
<path d="M73.0789 30H26.1842C25.5301 30 25 30.5301 25 31.1842V67.8158C25 68.4699 25.5301 69 26.1842 69H73.0789C73.7331 69 74.2632 68.4699 74.2632 67.8158V31.1842C74.2632 30.5301 73.7331 30 73.0789 30ZM71.8947 32.3684V37.8158H27.3684V32.3684H71.8947ZM27.3684 66.6316V40.1842H71.8947V66.6316H27.3684Z" fill="#6F67F0"/>
<path d="M49.6316 44.4766C40.3679 44.4766 33.4339 51.6292 33.1434 51.9338C32.7065 52.3914 32.7065 53.1115 33.1434 53.5691C33.4339 53.8735 40.3679 61.0261 49.6316 61.0261C58.8953 61.0261 65.8292 53.8735 66.1197 53.5689C66.5566 53.1114 66.5566 52.3912 66.1197 51.9336C65.8292 51.629 58.8953 44.4766 49.6316 44.4766ZM49.6314 57.5084C47.026 57.5084 44.9062 55.3743 44.9062 52.7514C44.9062 50.1284 47.026 47.9945 49.6314 47.9945C52.237 47.9945 54.3569 50.1284 54.3569 52.7514C54.3569 55.3743 52.237 57.5084 49.6314 57.5084ZM44.7389 47.5996C43.3845 48.8979 42.538 50.7267 42.538 52.7514C42.538 54.776 43.3843 56.6046 44.7387 57.9031C40.5305 56.6305 37.2294 54.0668 35.7326 52.7514C37.2299 51.4356 40.5308 48.8719 44.7389 47.5996ZM54.5244 57.9031C55.8788 56.6046 56.7253 54.776 56.7253 52.7514C56.7253 50.7267 55.8788 48.8979 54.5241 47.5996C58.7325 48.872 62.0339 51.4359 63.5307 52.7514C62.0332 54.0671 58.7323 56.6307 54.5244 57.9031Z" fill="#6F67F0"/>
<path d="M49.6316 50.2397C48.2586 50.2397 47.1413 51.3666 47.1413 52.7515C47.1413 54.1363 48.2584 55.263 49.6316 55.263C51.0047 55.263 52.1218 54.1363 52.1218 52.7515C52.1218 51.3665 51.0047 50.2397 49.6316 50.2397Z" fill="#6F67F0"/>
<path d="M31.3943 36.2368C31.7068 36.2368 32.0117 36.1105 32.2326 35.8895C32.4522 35.6684 32.5785 35.3637 32.5785 35.0526C32.5785 34.7414 32.4522 34.4353 32.2326 34.2158C32.0117 33.9947 31.7068 33.8684 31.3943 33.8684C31.0831 33.8684 30.7769 33.9947 30.5575 34.2158C30.3364 34.4353 30.2101 34.7398 30.2101 35.0526C30.2101 35.3651 30.3364 35.67 30.5575 35.8895C30.7785 36.1105 31.0831 36.2368 31.3943 36.2368Z" fill="#6F67F0"/>
<path d="M36.6048 36.2368C36.9173 36.2368 37.2222 36.1105 37.4432 35.8895C37.6629 35.6684 37.789 35.3637 37.789 35.0526C37.789 34.7414 37.6627 34.4353 37.4432 34.2158C37.2223 33.9947 36.9174 33.8684 36.6048 33.8684C36.2936 33.8684 35.9874 33.9947 35.768 34.2158C35.5469 34.4353 35.4206 34.7398 35.4206 35.0526C35.4206 35.3651 35.5469 35.67 35.768 35.8895C35.989 36.1105 36.2936 36.2368 36.6048 36.2368Z" fill="#6F67F0"/>
<path d="M41.8153 36.2368C42.1278 36.2368 42.4327 36.1105 42.6537 35.8895C42.8734 35.6684 42.9995 35.3637 42.9995 35.0526C42.9995 34.7414 42.8732 34.4353 42.6537 34.2158C42.4328 33.9947 42.1279 33.8684 41.8153 33.8684C41.5041 33.8684 41.1979 33.9947 40.9785 34.2158C40.7574 34.4353 40.6311 34.7398 40.6311 35.0526C40.6311 35.3651 40.7574 35.67 40.9785 35.8895C41.1995 36.1105 41.5041 36.2368 41.8153 36.2368Z" fill="#6F67F0"/>
</svg>
