<svg width="99" height="99" viewBox="0 0 99 99" fill="none" xmlns="http://www.w3.org/2000/svg">
<circle cx="49.5" cy="49.5" r="49.5" fill="#FAFAFC"/>
<path d="M55.5 56.7209C55.5 55.148 56.3828 53.7094 57.7798 53.006L61 51.3846L51.375 32H48.625L39 51.3846L42.2203 53.006C43.6172 53.7094 44.5 55.148 44.5 56.7209V56.9231H41.75V68H58.25V56.9231H55.5V56.7209ZM43.4495 50.5289L42.6891 50.1468L48.625 38.192V48.6154H51.375V38.192L57.3109 50.1454L56.5505 50.5275C54.2061 51.7086 52.75 54.0818 52.75 56.7209V56.9231H47.25V56.7209C47.25 54.0818 45.7939 51.7086 43.4495 50.5289ZM55.5 65.2308H44.5V59.6923H55.5V65.2308Z" fill="#6F67F0"/>
</svg>
