<svg width="25" height="18" viewBox="0 0 25 18" fill="none" xmlns="http://www.w3.org/2000/svg">
<path d="M15.4915 17.9375H13.8608C8.90754 17.9375 4.89209 13.922 4.89209 8.96875C4.89209 4.01545 8.90754 0 13.8608 0H15.4915C20.4448 0 24.4603 4.01545 24.4603 8.96875C24.4603 13.922 20.4448 17.9375 15.4915 17.9375Z" fill="#643773"/>
<path d="M13.8608 17.9375C18.8141 17.9375 22.8296 13.9221 22.8296 8.96875C22.8296 4.01545 18.8141 0 13.8608 0C8.90754 0 4.89209 4.01545 4.89209 8.96875C4.89209 13.9221 8.90754 17.9375 13.8608 17.9375Z" fill="#9B5FAA"/>
<path d="M13.8607 14.6762C17.0128 14.6762 19.5681 12.121 19.5681 8.96886C19.5681 5.81676 17.0128 3.26147 13.8607 3.26147C10.7086 3.26147 8.15332 5.81676 8.15332 8.96886C8.15332 12.121 10.7086 14.6762 13.8607 14.6762Z" fill="#D7E6F0"/>
<path d="M13.8608 11.4148C15.2117 11.4148 16.3068 10.3196 16.3068 8.96873C16.3068 7.61783 15.2117 6.52271 13.8608 6.52271C12.5099 6.52271 11.4148 7.61783 11.4148 8.96873C11.4148 10.3196 12.5099 11.4148 13.8608 11.4148Z" fill="#9B5FAA"/>
<path d="M13.8609 9.784H1.63077C1.18045 9.784 0.81543 9.41898 0.81543 8.96866C0.81543 8.51834 1.18045 8.15332 1.63077 8.15332H13.8609C14.3112 8.15332 14.6762 8.51834 14.6762 8.96866C14.6762 9.41898 14.3112 9.784 13.8609 9.784Z" fill="#463C4B"/>
<path d="M1.63077 9.784C2.08107 9.784 2.44611 9.41896 2.44611 8.96866C2.44611 8.51836 2.08107 8.15332 1.63077 8.15332C1.18047 8.15332 0.81543 8.51836 0.81543 8.96866C0.81543 9.41896 1.18047 9.784 1.63077 9.784Z" fill="#555A6E"/>
<path d="M1.63068 8.1533L0.168877 6.69149C0.0607429 6.58336 0 6.43675 0 6.28382C0 5.96538 0.258106 5.70728 0.576548 5.70728H5.03193C5.46441 5.70728 5.87917 5.87906 6.18497 6.18491L8.15341 8.1533H1.63068Z" fill="#5AD7FF"/>
<path d="M4.89193 8.1533L2.44591 5.70728H1.2229L3.66892 8.1533H4.89193Z" fill="#41AFE1"/>
<path d="M8.15341 8.1533L6.18502 6.18491C5.87922 5.87911 5.46447 5.70728 5.03198 5.70728H4.48438L6.9304 8.1533H8.15341Z" fill="#41AFE1"/>
<path d="M1.63068 9.78418L0.168877 11.246C0.0607429 11.3541 0 11.5007 0 11.6537C0 11.9721 0.258106 12.2302 0.576548 12.2302H5.03193C5.46441 12.2302 5.87917 12.0584 6.18497 11.7526L8.15341 9.78418H1.63068Z" fill="#41AFE1"/>
<path d="M4.89193 9.78418L2.44591 12.2302H1.2229L3.66892 9.78418H4.89193Z" fill="#2387C3"/>
<path d="M8.15341 9.78418L6.18502 11.7526C5.87922 12.0584 5.46447 12.2302 5.03198 12.2302H4.48438L6.9304 9.78418H8.15341Z" fill="#2387C3"/>
</svg>
