<svg width="20" height="26" viewBox="0 0 20 26" fill="none" xmlns="http://www.w3.org/2000/svg">
<path d="M4.33374 13V25.3872C4.33374 25.7256 4.60809 26 4.94658 26C5.10914 26 5.26497 25.9354 5.37991 25.8205L10.4004 20.8L15.4209 25.8205C15.5358 25.9354 15.6917 26 15.8542 26C16.1927 26 16.4671 25.7256 16.4671 25.3872V13H4.33374Z" fill="#463C4B"/>
<path d="M4.33374 16.7892C4.55333 17.3185 4.76713 17.8579 5.19932 18.1079C5.94027 18.5366 7.11774 17.965 7.96399 18.1911C8.78191 18.4098 9.51359 19.5 10.4004 19.5C11.2872 19.5 12.0189 18.4098 12.8368 18.1912C13.683 17.965 14.8605 18.5366 15.6014 18.108C16.0337 17.8579 16.2474 17.3185 16.4671 16.7892V13H4.33374V16.7892Z" fill="#32283C"/>
<path d="M18.3548 11.2318C18.5461 10.5162 19.5 9.87594 19.5 9.1C19.5 8.32406 18.5461 7.68381 18.3548 6.96816C18.1568 6.22771 18.6571 5.1974 18.282 4.54908C17.9015 3.89144 16.7555 3.81187 16.2218 3.27817C15.6881 2.74446 15.6086 1.59851 14.9509 1.21805C14.7631 1.10939 14.5432 1.07445 14.3076 1.0744V1.07418H13.0076V1.0744C12.8277 1.0744 12.6387 1.09471 12.4476 1.11876C11.7655 0.879829 11.1454 0 10.4 0H9.1C8.35456 0 7.73462 0.880371 7.0525 1.11914C6.86162 1.09514 6.67225 1.0744 6.49236 1.0744V1.07418H5.19236V1.0744C4.95679 1.0744 4.73688 1.10939 4.54908 1.21805C3.89144 1.59851 3.81187 2.74446 3.27817 3.27817C2.74446 3.81187 1.59851 3.89144 1.21805 4.54908C0.842942 5.1974 1.34312 6.22771 1.14525 6.96816C0.953929 7.68381 0 8.32406 0 9.1C0 9.87594 0.953929 10.5162 1.14525 11.2318C1.34317 11.9723 0.842942 13.0026 1.21805 13.6509C1.59851 14.3086 2.74446 14.3881 3.27817 14.9218C3.81187 15.4555 3.89144 16.6015 4.54908 16.982C4.73688 17.0906 4.95685 17.1256 5.19236 17.1256V17.1258H6.49236V17.1256C6.6722 17.1256 6.86205 17.105 7.05293 17.081C7.73511 17.3198 8.3545 18.2 9.1 18.2H10.4C11.1454 18.2 11.7655 17.3202 12.4476 17.0812C12.6387 17.1053 12.8277 17.1256 13.0076 17.1256V17.1258H14.3076V17.1256C14.5432 17.1256 14.7631 17.0906 14.9509 16.982C15.6086 16.6015 15.6881 15.4555 16.2218 14.9218C16.7555 14.3881 17.9015 14.3086 18.282 13.6509C18.6571 13.0026 18.1569 11.9723 18.3548 11.2318Z" fill="#2387C3"/>
<path d="M18.2 9.1C18.2 9.87594 17.2461 10.5162 17.0548 11.2318C16.8568 11.9723 17.3571 13.0027 16.982 13.6509C16.6015 14.3086 15.4555 14.3881 14.9218 14.9218C14.3881 15.4555 14.3086 16.6015 13.6509 16.982C13.0026 17.3571 11.9723 16.8568 11.2318 17.0548C10.5162 17.2461 9.87594 18.2 9.1 18.2C8.32406 18.2 7.68381 17.2461 6.96816 17.0548C6.22771 16.8568 5.19735 17.3571 4.54908 16.982C3.89144 16.6015 3.81187 15.4555 3.27817 14.9218C2.74446 14.3881 1.59851 14.3086 1.21805 13.6509C0.842942 13.0026 1.34317 11.9723 1.14525 11.2318C0.953929 10.5162 0 9.87594 0 9.1C0 8.32406 0.953929 7.68381 1.14525 6.96816C1.34317 6.22771 0.842942 5.19735 1.21805 4.54908C1.59851 3.89144 2.74446 3.81187 3.27817 3.27817C3.81187 2.74446 3.89144 1.59851 4.54908 1.21805C5.1974 0.842942 6.22771 1.34317 6.96816 1.14525C7.68381 0.953929 8.32406 0 9.1 0C9.87594 0 10.5162 0.953929 11.2318 1.14525C11.9723 1.34317 13.0027 0.842942 13.6509 1.21805C14.3086 1.59851 14.3881 2.74446 14.9218 3.27817C15.4555 3.81187 16.6015 3.89144 16.982 4.54908C17.3571 5.1974 16.8568 6.22771 17.0548 6.96816C17.2461 7.68381 18.2 8.32406 18.2 9.1Z" fill="#44AFD0"/>
<path d="M9.09959 16.0329C12.9288 16.0329 16.0329 12.9288 16.0329 9.09959C16.0329 5.27042 12.9288 2.16626 9.09959 2.16626C5.27042 2.16626 2.16626 5.27042 2.16626 9.09959C2.16626 12.9288 5.27042 16.0329 9.09959 16.0329Z" fill="#463C4B"/>
<path d="M7.51115 12.9995H5.77782C5.53851 12.9995 5.34448 12.8055 5.34448 12.5662V7.36619C5.34448 7.12689 5.53851 6.93286 5.77782 6.93286H7.51115C7.75046 6.93286 7.94448 7.12689 7.94448 7.36619V12.5662C7.94448 12.8055 7.75046 12.9995 7.51115 12.9995Z" fill="#36A3C6"/>
<path d="M12.2784 7.36707H11.4117V5.20041C11.4117 4.72174 11.0237 4.33374 10.5451 4.33374C10.0664 4.33374 9.6784 4.72174 9.6784 5.20041C9.6784 5.47785 9.56817 5.74397 9.37198 5.94016L7.94507 7.36707V12.5671H12.2784C12.7571 12.5671 13.1451 12.179 13.1451 11.7004V8.23374C13.1451 7.75512 12.757 7.36707 12.2784 7.36707Z" fill="#FBB993"/>
<path d="M6.64493 12.2777C6.96404 12.2777 7.22273 12.019 7.22273 11.6999C7.22273 11.3808 6.96404 11.1221 6.64493 11.1221C6.32583 11.1221 6.06714 11.3808 6.06714 11.6999C6.06714 12.019 6.32583 12.2777 6.64493 12.2777Z" fill="#E6E6EB"/>
</svg>
