<svg width="18" height="17" viewBox="0 0 18 17" fill="none" xmlns="http://www.w3.org/2000/svg">
<path d="M17.6538 13.077H0V4.57698C0 3.85477 0.585478 3.26929 1.30769 3.26929H16.3462C17.0684 3.26929 17.6538 3.85477 17.6538 4.57698V13.077Z" fill="#463C4B"/>
<path d="M16.3462 13.077H0V4.57698C0 3.85477 0.585478 3.26929 1.30769 3.26929H15.0385C15.7607 3.26929 16.3462 3.85477 16.3462 4.57698V13.077Z" fill="#555A6E"/>
<path d="M1.30769 14.7115H16.3462C17.0684 14.7115 17.6538 14.126 17.6538 13.4038V13.0769H0V13.4038C0 14.126 0.585478 14.7115 1.30769 14.7115Z" fill="#A5C3DC"/>
<path d="M15.0385 14.7115H1.30769C0.585478 14.7115 0 14.126 0 13.4038V13.0769H16.3462V13.4038C16.3462 14.126 15.7607 14.7115 15.0385 14.7115Z" fill="#D7E6F0"/>
<path d="M9.80779 14.7114H6.86548V16.0191H9.80779V14.7114Z" fill="#A5C3DC"/>
<path d="M8.82702 15.3655H6.86548V16.0193H8.82702V15.3655Z" fill="#D7E6F0"/>
<path d="M11.4423 16.9998H4.90381V16.6729C4.90381 16.3118 5.19653 16.019 5.55765 16.019H10.7884C11.1496 16.019 11.4423 16.3118 11.4423 16.6729V16.9998Z" fill="#D7E6F0"/>
<path d="M11.4423 16.9998H9.48071V16.6729C9.48071 16.3118 9.77343 16.019 10.1346 16.019H10.7884C11.1495 16.019 11.4423 16.3118 11.4423 16.6729V16.9998Z" fill="#A5C3DC"/>
<path d="M5.5576 7.19219H4.24991C2.80777 7.19219 1.63452 6.01895 1.63452 4.57681V3.26912C1.63452 2.54805 2.22114 1.96143 2.94221 1.96143H4.24991V3.26912H2.94221V4.57681C2.94221 5.29788 3.52884 5.8845 4.24991 5.8845H5.5576V7.19219Z" fill="#5AD7FF"/>
<path d="M8.82674 7.84619H7.51904V11.7693H8.82674V7.84619Z" fill="#2387C3"/>
<path d="M5.55762 13.077C5.55762 12.3548 6.1431 11.7693 6.86531 11.7693H9.48069C10.2029 11.7693 10.7884 12.3548 10.7884 13.077H5.55762Z" fill="#5AD7FF"/>
<path d="M12.2597 0.980769H4.08658C3.81576 0.980769 3.59619 0.761199 3.59619 0.490385C3.59619 0.21957 3.81576 0 4.08658 0H12.2597C12.5305 0 12.75 0.21957 12.75 0.490385C12.75 0.761199 12.5305 0.980769 12.2597 0.980769Z" fill="#2387C3"/>
<path d="M8.00965 0.980769H4.08658C3.81576 0.980769 3.59619 0.761199 3.59619 0.490385C3.59619 0.21957 3.81576 0 4.08658 0H8.00965C8.28047 0 8.50004 0.21957 8.50004 0.490385C8.50004 0.761199 8.28047 0.980769 8.00965 0.980769Z" fill="#5AD7FF"/>
<path d="M8.17308 8.49994C6.00643 8.49994 4.25 6.74351 4.25 4.57687V0.980713H12.0962V4.57687C12.0962 6.74351 10.3397 8.49994 8.17308 8.49994Z" fill="#2387C3"/>
<path d="M6.21154 6.53835C5.1282 6.53835 4.25 5.66015 4.25 4.57681V1.96143H8.17308V4.57681C8.17308 5.66015 7.29488 6.53835 6.21154 6.53835Z" fill="#5AD7FF"/>
<path d="M5.55765 5.23066C5.19653 5.23066 4.90381 4.93794 4.90381 4.57681V1.96143H6.2115V4.57681C6.2115 4.93794 5.91878 5.23066 5.55765 5.23066Z" fill="#78F5FF"/>
<path d="M12.096 7.19219H10.7883V5.8845H12.096C12.8171 5.8845 13.4037 5.29788 13.4037 4.57681V3.26912H12.096V1.96143H13.4037C14.1248 1.96143 14.7114 2.54805 14.7114 3.26912V4.57681C14.7114 6.01895 13.5382 7.19219 12.096 7.19219Z" fill="#2387C3"/>
<path d="M14.3846 9.80767H13.7307V9.15383C13.7307 8.97328 13.8771 8.8269 14.0576 8.8269C14.2382 8.8269 14.3846 8.97328 14.3846 9.15383V9.80767Z" fill="#B97DC8"/>
<path d="M14.0576 11.4422C13.8771 11.4422 13.7307 11.2958 13.7307 11.1153V10.4614H14.3846V11.1153C14.3846 11.2958 14.2382 11.4422 14.0576 11.4422Z" fill="#B97DC8"/>
<path d="M14.3845 10.4615V9.80762H15.0384C15.2189 9.80762 15.3653 9.954 15.3653 10.1345C15.3653 10.3151 15.2189 10.4615 15.0384 10.4615H14.3845Z" fill="#B97DC8"/>
<path d="M12.75 10.1345C12.75 9.954 12.8964 9.80762 13.0769 9.80762H13.7308V10.4615H13.0769C12.8964 10.4615 12.75 10.3151 12.75 10.1345Z" fill="#B97DC8"/>
<path d="M2.61527 9.80767H1.96143V9.15383C1.96143 8.97328 2.10781 8.8269 2.28835 8.8269C2.46889 8.8269 2.61527 8.97328 2.61527 9.15383V9.80767Z" fill="#B97DC8"/>
<path d="M2.28835 11.4422C2.10781 11.4422 1.96143 11.2958 1.96143 11.1153V10.4614H2.61527V11.1153C2.61527 11.2958 2.46889 11.4422 2.28835 11.4422Z" fill="#B97DC8"/>
<path d="M2.61548 10.4615V9.80762H3.26932C3.44987 9.80762 3.59625 9.954 3.59625 10.1345C3.59625 10.3151 3.44987 10.4615 3.26932 10.4615H2.61548Z" fill="#B97DC8"/>
<path d="M0.980957 10.1345C0.980957 9.954 1.12734 9.80762 1.30788 9.80762H1.96173V10.4615H1.30788C1.12734 10.4615 0.980957 10.3151 0.980957 10.1345Z" fill="#B97DC8"/>
</svg>
