<svg width="22" height="22" viewBox="0 0 22 22" fill="none" xmlns="http://www.w3.org/2000/svg">
<g clip-path="url(#clip0_339357_663)">
<path fill-rule="evenodd" clip-rule="evenodd" d="M-1.11719 -1.07422H24.3418V24.5352H-1.11719V-1.07422Z" fill="white"/>
<path fill-rule="evenodd" clip-rule="evenodd" d="M10.97 -0.876465H24.3805V10.9485H10.9743L10.97 -0.876465Z" fill="#DB0000"/>
<path fill-rule="evenodd" clip-rule="evenodd" d="M-2.3418 10.9485H10.9742V24.5353H-2.3418V10.9485ZM7.69141 7.80322L5.69336 6.54853L3.7082 7.81611L4.44727 5.75361L2.46211 4.48174L4.91562 4.46455L5.67617 2.41064L6.45391 4.46025H8.90742L6.93516 5.74932L7.69141 7.80322Z" fill="#0000AB"/>
<path fill-rule="evenodd" clip-rule="evenodd" d="M18.7 19.2931L16.7062 18.0384L14.7168 19.306L15.4559 17.2435L13.4707 15.9759L15.9285 15.9587L16.6891 13.9048L17.4625 15.9544H19.9203L17.9438 17.2435L18.7 19.2931Z" fill="#D80000"/>
</g>
<defs>
<clipPath id="clip0_339357_663">
<rect width="22" height="22" rx="11" fill="white"/>
</clipPath>
</defs>
</svg>
