<svg width="41" height="19" viewBox="0 0 41 19" fill="none" xmlns="http://www.w3.org/2000/svg">
<path d="M8.09443 0.128779C5.62317 -0.20038 3.10909 0.167428 0.835694 1.19073C0.17088 2.57784 -0.105449 4.11924 0.0361079 5.65092C0.1736 7.52347 0.457657 9.38237 0.885668 11.2105C3.39104 11.3376 5.90284 11.2078 8.38178 10.8232C8.56688 9.91219 8.56688 8.97322 8.38178 8.06217C6.91173 8.19943 5.43538 8.25782 3.95908 8.23708C3.68069 6.6358 3.78776 4.99123 4.27141 3.43957C5.46068 2.96715 6.74706 2.79135 8.01947 2.92733L8.09443 0.128779ZM8.78158 0.00384521V10.0986C10.7173 10.1217 12.6506 9.95429 14.5536 9.59887V6.96274C13.6674 7.08625 12.7746 7.15718 11.88 7.17513L11.6676 0.00384521H8.78158ZM22.3745 0.266208C22.3745 0.266208 18.1142 -0.258521 16.4151 0.341169L16.1278 2.16522H16.665L14.5536 9.59887H17.527L17.8269 7.8123H20.7129L21.1377 9.64885H24.1611L22.3745 0.266208ZM18.3766 5.47601L19.1637 2.76491H19.6759L20.1632 5.47601H18.3766Z" fill="white"/>
<path d="M30.2205 0.00381129C28.1389 -0.0405458 26.0672 0.302613 24.1111 1.01579C24.1111 1.01579 23.6864 3.60195 23.5489 5.43849C24.7014 5.76588 25.8803 5.99163 27.0721 6.11315V6.75032C26.1351 7.20187 25.1001 7.4123 24.0612 7.3625C23.8791 8.09683 23.8791 8.8645 24.0612 9.59884C26.1813 9.73693 28.2978 9.27815 30.1705 8.27452C30.4885 7.15032 30.5903 5.97597 30.4703 4.81382L26.9971 3.95177V2.70241L30.258 2.22766L30.2205 0.00381129ZM3.79666 13.3969H1.4104C1.24804 13.3969 1.09233 13.4614 0.977522 13.5762C0.862715 13.691 0.798218 13.8467 0.798218 14.0091V16.3828C0.798185 16.5464 0.862282 16.7034 0.976743 16.8202C1.0912 16.937 1.2469 17.0042 1.4104 17.0075H3.79666C3.96016 17.0042 4.11586 16.937 4.23032 16.8202C4.34478 16.7034 4.40888 16.5464 4.40885 16.3828V14.0091C4.40885 13.8467 4.34435 13.691 4.22954 13.5762C4.11474 13.4614 3.95902 13.3969 3.79666 13.3969ZM3.02206 15.8206C3.02206 15.8736 3.001 15.9245 2.96352 15.962C2.92603 15.9995 2.87518 16.0205 2.82217 16.0205H2.29744C2.24442 16.0205 2.19358 15.9995 2.15609 15.962C2.1186 15.9245 2.09754 15.8736 2.09754 15.8206V14.6837C2.09745 14.6295 2.1181 14.5773 2.15527 14.5378C2.19244 14.4983 2.2433 14.4745 2.29744 14.4713H2.82217C2.87631 14.4745 2.92717 14.4983 2.96434 14.5378C3.00151 14.5773 3.02216 14.6295 3.02206 14.6837V15.8206Z" fill="white"/>
<path d="M5.00854 14.0715V13.5967C5.01123 13.3451 5.09919 13.1018 5.25804 12.9067C5.41689 12.7115 5.63725 12.576 5.88309 12.5223C6.34095 12.4088 6.81066 12.3501 7.28237 12.3474V13.2719C7.28237 13.2719 6.14546 13.3344 6.14546 13.9716H7.28237V15.0335H6.14546V16.895H4.8961V15.046H4.39636V14.0465L5.00854 14.0715ZM14.4661 10.4734V12.4598C13.6232 12.4197 12.7793 12.5168 11.9674 12.7472C11.5644 13.8932 11.4611 15.1232 11.6676 16.3203C11.905 16.9325 14.4661 16.7326 14.4661 16.7326V18.819C12.9668 18.8481 11.4693 18.6971 10.006 18.3693C9.00647 17.9195 8.88154 16.6077 8.98149 14.6212C9.08143 12.6347 9.26884 11.6603 10.2308 11.0606C11.3428 10.2985 14.4661 10.4734 14.4661 10.4734Z" fill="white"/>
<path d="M14.7035 10.4358H17.1397V16.4202H19.7384L19.451 18.5941H14.7035V10.4358Z" fill="white"/>
<path d="M25.7228 10.5483L21.1502 10.4734L20.7004 12.2475H21.2876L19.7384 18.5942H21.8623L22.0872 17.2574H24.361L24.7608 18.5942H27.0471L25.7228 10.5483ZM22.6369 15.096L23.399 12.4599H23.5489L24.1611 15.096H22.6369Z" fill="white"/>
<path d="M27.2844 18.5942V10.6733L30.5577 10.5983L31.957 14.1964V10.5983H34.0684V18.5942H31.02L29.3209 14.9835V18.5942H27.2844Z" fill="white"/>
<path d="M39.2907 10.0986C37.9399 10.127 36.5921 10.2397 35.2553 10.4359C34.9055 10.5984 34.7431 10.8732 34.6556 11.9352C34.5682 12.9971 34.4682 14.0591 34.4682 14.0591C34.4682 14.0591 34.2433 14.9461 34.843 15.096C35.4427 15.2459 38.0039 15.5333 38.0039 15.5333V16.2704H34.5182L34.4307 18.3693C36.0895 18.636 37.783 18.5979 39.4281 18.2569C39.8404 18.0945 40.1153 17.9945 40.1653 17.4698C40.2933 16.3416 40.2214 15.1997 39.9529 14.0965C39.0173 13.8116 38.054 13.6273 37.0794 13.5468V12.4599H39.2282L39.2907 10.0986ZM30.6702 0.00384521L30.5577 9.88622H33.6436V6.32557C34.2471 6.11995 34.9017 6.11995 35.5052 6.32557V9.86124H38.2787V0.00384521H35.5302V3.12723L33.6187 3.18969V0.0538181L30.6702 0.00384521Z" fill="white"/>
</svg>
