<svg width="61" height="26" viewBox="0 0 61 26" fill="none" xmlns="http://www.w3.org/2000/svg">
<path d="M30.2231 0.0613499C30.624 -0.07754 31.0618 0.0384067 31.4292 0.219579C31.6858 0.38484 31.9425 0.55186 32.23 0.659983C32.252 0.701298 32.2977 0.78305 32.3196 0.823486C32.3082 0.850737 32.2862 0.906996 32.2748 0.934247C32.4796 1.40014 32.6106 1.95219 32.4119 2.44173C32.2766 2.60699 32.041 2.63257 31.8502 2.69657C31.8493 2.93303 31.8871 3.16695 31.9074 3.40165C32.3152 3.46758 32.6605 3.18365 33.064 3.21178C33.1185 2.98586 33.1616 2.75625 33.2339 2.53482C33.3174 2.68162 33.3208 2.85049 33.3218 3.01575C33.4272 3.04564 33.5345 3.07289 33.6424 3.09917C33.6435 3.1397 33.6443 3.22057 33.6443 3.261C35.4129 3.27155 37.1806 3.25301 38.9493 3.27067C38.945 3.33115 38.9363 3.45255 38.9328 3.51329C38.9785 3.51329 39.0717 3.51417 39.1181 3.51417C39.1164 3.19253 39.1181 2.86983 39.1172 2.54818C39.1621 2.54634 39.25 2.5437 39.2939 2.54282C39.295 2.79599 39.2958 3.04915 39.2984 3.30241C39.337 3.34988 39.4144 3.44473 39.4532 3.49219C39.4822 3.45782 39.5402 3.39031 39.5691 3.35594C39.7036 3.48173 39.6271 3.65403 39.6211 3.80856C40.116 3.8032 40.616 3.83661 41.1094 3.79617C41.1463 3.76892 41.2201 3.7153 41.257 3.68814C41.3248 3.71442 41.3933 3.74088 41.461 3.76813C41.6834 3.76268 41.9066 3.76198 42.1299 3.7611C42.1254 3.87625 42.1218 3.99132 42.1174 4.10656C41.83 4.10208 41.5417 4.09601 41.2586 4.14515C41.0758 3.98789 40.8305 4.03782 40.6099 4.03184C40.2706 4.04767 39.9205 3.98789 39.5919 4.09593C39.3966 4.15043 39.1823 4.13733 39.01 4.02648C38.9685 4.12933 39.032 4.35964 38.8586 4.35076C38.1765 4.35964 37.4952 4.3447 36.814 4.35525C36.7208 4.40447 36.6267 4.45106 36.5337 4.49669C36.4353 4.79029 36.1531 4.98623 35.9129 5.16555C35.883 5.61651 36.0615 6.03757 36.1309 6.47525C35.9964 6.51384 35.8611 6.55357 35.7283 6.59753C35.5376 7.0476 35.6545 7.66197 35.2132 7.97597C34.8748 8.17278 34.6508 8.60088 34.1944 8.53328C34.4265 8.72667 34.1311 8.66602 34.1619 8.51131C33.3364 8.43835 32.6411 7.95399 31.9238 7.58488C31.8904 7.78697 31.8377 7.98572 31.7832 8.18351C32.0557 8.23537 32.2807 8.4358 32.329 8.71533C32.4161 9.3246 32.242 9.92948 32.2447 10.5403C32.264 10.899 32.1102 11.2277 31.9185 11.5204C31.7506 11.7103 31.486 11.515 31.2847 11.487C31.2389 11.5758 31.1942 11.6646 31.1502 11.7542C31.2074 11.9932 31.232 12.242 31.312 12.4758C31.7612 12.9725 32.1699 13.5106 32.4838 14.1039C32.8068 14.7759 33.0947 15.4642 33.3462 16.1661C33.3707 16.3024 33.4991 16.3514 33.6118 16.4008C33.6267 16.5414 33.6416 16.6819 33.6557 16.8244C33.6997 16.8886 33.7445 16.9527 33.7902 17.0177C33.8175 17.8845 33.7111 18.7477 33.5764 19.603C33.4931 19.989 33.7188 20.366 33.6274 20.7545C33.638 20.9535 33.501 21.1037 33.4366 21.2795C33.4243 21.69 33.4041 22.1057 33.4491 22.5155C33.4806 22.8162 33.7348 23.0095 33.9071 23.2337C34.0952 23.4334 34.2526 23.7014 34.5374 23.7725C34.8055 23.8525 35.0613 23.9685 35.2976 24.1207C35.3697 24.299 35.3565 24.4882 35.3222 24.6735C34.8071 24.7685 34.2814 24.7211 33.761 24.7291C33.36 24.7501 33.0024 24.5347 32.6128 24.4898C32.2357 24.4803 31.776 24.6675 31.486 24.3299C31.6089 23.8615 31.6188 23.3586 31.8436 22.9216C31.9157 22.4268 31.7788 21.9247 31.8076 21.4254C31.7647 21.3894 31.6784 21.3173 31.6353 21.2811C31.6662 20.9551 31.5053 20.6649 31.4516 20.3529C31.4166 19.8973 31.3751 19.4421 31.3224 18.9885C31.281 18.7679 31.3953 18.5658 31.5509 18.419C31.565 18.1641 31.5994 17.9117 31.6239 17.6586C31.5861 17.4941 31.4551 17.372 31.3707 17.2314C31.0885 17.3502 30.7079 17.2939 30.54 17.0177C30.1419 16.4253 29.7445 15.8328 29.3419 15.2438C29.1836 15.2333 29.0166 15.2499 28.8689 15.1866C28.6986 15.0118 28.6096 14.7788 28.5008 14.5661C28.3451 14.741 28.3564 15.0091 28.172 15.1683C27.7817 15.5428 27.678 16.0931 27.4741 16.573C27.3178 16.8841 27.4057 17.2594 27.2314 17.5628C27.1383 17.7262 26.9044 17.7587 26.8429 17.9453C26.762 18.1464 26.6671 18.3548 26.4781 18.4772C26.2733 18.6115 26.2189 18.8666 26.1275 19.0774C26.044 19.2718 26.168 19.4756 26.139 19.6752C26.0089 20.3091 25.6054 20.8391 25.4357 21.4598C25.3584 21.7393 25.2475 22.054 24.9223 22.1137C24.5522 22.7748 24.3483 23.5836 24.5575 24.3279C24.6859 24.5617 24.6789 24.8245 24.6393 25.0821C24.0513 25.1279 23.4482 25.2069 22.8707 25.0426C22.7354 24.7744 22.7547 24.4589 22.7828 24.169C22.9612 23.4067 23.1977 22.6579 23.3427 21.8878C23.1616 21.7269 23.2039 21.4809 23.2073 21.2654C23.2013 20.8637 23.4746 20.542 23.6644 20.2123C23.7357 19.8739 23.7023 19.5102 23.8772 19.1997C24.0829 18.8111 24.2569 18.391 24.5743 18.0771C24.6349 17.8002 24.839 17.5911 24.9215 17.3245C25.0094 17.0889 24.8555 16.8498 24.8865 16.609C24.962 15.8784 25.0948 15.155 25.21 14.4298C24.9921 14.2478 25.0623 13.9587 24.9928 13.7134C25.0271 13.6167 25.0702 13.5244 25.1221 13.4347C25.0676 13.3846 25.014 13.3336 24.9594 13.2836C25.0122 13.0258 24.9972 12.5643 25.3928 12.648C25.4174 11.7945 25.1212 10.9682 25.2205 10.1136C25.2733 10.1751 25.325 10.2376 25.3779 10.3L25.3497 10.0108C25.515 9.92289 25.6908 9.8552 25.8754 9.82092C25.5748 9.78145 25.2821 9.70497 24.9874 9.63632C24.9162 9.44899 24.9559 9.24953 24.9821 9.0579C25.0964 8.41092 25.1386 7.75515 25.1623 7.09938C25.4955 6.98352 25.8629 7.08188 26.1882 6.92708C26.0873 6.10693 26.0618 5.25082 26.3534 4.46398C26.5881 3.79406 27.0366 3.14796 27.7362 2.91246C28.0667 2.83343 28.4825 2.74456 28.7162 3.06542C28.7803 3.00652 28.8445 2.94586 28.9087 2.88697C28.3752 1.82736 29.0125 0.279354 30.2231 0.0613499ZM34.4926 4.65702C34.3519 4.74317 34.2139 4.84171 34.3618 4.99818C34.2897 5.04117 34.2174 5.08257 34.1445 5.12204C34.0302 5.20995 33.7735 5.25996 33.8034 5.43771C33.9318 5.64386 34.0424 5.86057 34.134 6.08548C34.4143 5.85526 34.6376 5.54566 34.7888 5.21795C34.8205 5.18542 34.8847 5.12037 34.9163 5.08864C34.9022 4.93832 34.8688 4.79143 34.8099 4.65263C34.7044 4.65447 34.5981 4.65615 34.4926 4.65702Z" fill="white"/>
<path d="M37.0718 12.5263C37.4744 12.0183 38.1249 11.7369 38.77 11.7475C40.7329 11.7493 42.6967 11.7466 44.6596 11.7483C45.6171 11.7686 46.5506 12.5167 46.6613 13.489C43.9442 13.48 41.2277 13.4969 38.5116 13.48C38.509 15.2979 38.5055 17.1167 38.5116 18.9355C40.5968 18.9321 42.6817 18.9285 44.767 18.9373C44.759 18.2859 44.7694 17.6345 44.7608 16.9833C43.7298 16.9891 42.6986 16.9912 41.6674 16.9833C40.8403 16.9515 40.225 16.2369 40.0387 15.4757C42.2557 15.4678 44.4718 15.4669 46.6886 15.4766C46.6791 16.5903 46.694 17.705 46.6807 18.8188C46.6543 19.7567 45.8474 20.5823 44.9226 20.6763C42.7838 20.6763 40.6442 20.6754 38.5055 20.6754C37.8664 20.6709 37.3012 20.2674 36.9408 19.7638C36.6946 19.4077 36.6392 18.9656 36.6041 18.5462C36.6006 17.0518 36.6059 15.5566 36.6023 14.0622C36.6103 13.5205 36.7062 12.9483 37.0718 12.5263ZM50.0404 11.8089C50.2612 11.7491 50.4913 11.7448 50.7192 11.7475C52.5335 11.7529 54.3488 11.7414 56.1631 11.7519C57.1916 11.7958 58.0952 12.6838 58.1349 13.7157C58.1367 15.3833 58.1367 17.0516 58.1349 18.7203C58.1164 19.7425 57.211 20.6954 56.173 20.6779C54.1775 20.6691 52.1821 20.6841 50.1865 20.6709C49.1914 20.5601 48.4275 19.6099 48.4205 18.6262C48.4064 17.1054 48.4222 15.5828 48.4126 14.0622C48.4047 13.6139 48.4855 13.1532 48.7229 12.7665C49.0014 12.2802 49.5007 11.94 50.0404 11.8089ZM50.3534 13.4318C50.3569 15.3077 50.3455 17.1844 50.3587 19.0603C52.3075 19.0656 54.2575 19.0594 56.2062 19.0627C56.2122 17.1853 56.2071 15.3075 56.2087 13.4289C54.2573 13.4282 52.3049 13.4248 50.3534 13.4318ZM0.00310101 13.8784C0.0445043 12.8613 0.896216 11.9057 1.93262 11.8661C3.86907 11.8643 5.8065 11.8643 7.74314 11.867C8.78921 11.8565 9.66052 12.8015 9.73946 13.8151C9.59969 13.8266 9.45992 13.8352 9.32015 13.837C7.0144 13.8345 4.70866 13.8379 2.4037 13.8352C2.40273 15.4738 2.39412 17.1122 2.40809 18.7508C4.85546 18.7472 7.30185 18.7455 9.74913 18.7518C9.67968 19.8021 8.79527 20.7342 7.72916 20.7754C5.97458 20.8001 4.21999 20.7763 2.46532 20.7869C2.02843 20.8018 1.57836 20.7473 1.18463 20.5477C0.506005 20.2006 0.0259563 19.4929 0.00239777 18.7246C0.000463862 17.1089 -0.00217329 15.494 0.00310101 13.8784ZM11.603 13.0819C11.9257 12.3777 12.6641 11.8548 13.45 11.8644C15.3839 11.8662 17.3187 11.8644 19.2536 11.8652C20.2635 11.8714 21.1531 12.7556 21.2244 13.7535C18.6733 13.7896 16.1206 13.7587 13.5688 13.7685C13.5573 14.2818 13.5626 14.7952 13.5617 15.3094C15.4587 15.3154 17.3566 15.3111 19.2536 15.3111C19.8161 15.3331 20.4069 15.5134 20.7901 15.9484C21.2207 16.3335 21.4028 16.9199 21.4168 17.4842C21.4264 18.0477 21.4264 18.6139 21.335 19.1719C21.1258 20.0757 20.2617 20.749 19.3397 20.778C17.4955 20.7955 15.6502 20.7798 13.806 20.7868C13.371 20.7957 12.9209 20.7332 12.5349 20.5213C11.9231 20.2022 11.4836 19.5603 11.423 18.8713C14.0197 18.8838 16.6173 18.8792 19.214 18.8731C19.2202 18.3262 19.2167 17.7795 19.2167 17.2328C17.2951 17.2196 15.3726 17.231 13.45 17.2274C12.3451 17.2362 11.3676 16.2209 11.3973 15.1195C11.436 14.4409 11.2796 13.7122 11.603 13.0819ZM58.7352 12.0473C58.9795 12.0411 59.2265 12.0315 59.47 12.0684C59.3566 12.0974 59.2413 12.1123 59.1255 12.1141C59.1105 12.3788 59.1088 12.6434 59.1123 12.9078C59.0868 12.9078 59.0368 12.9078 59.0121 12.9087C59.0138 12.6371 59.0165 12.3654 59.0129 12.0947C58.9444 12.1001 58.8081 12.1123 58.7404 12.1175L58.7352 12.0473ZM59.6071 12.0375C59.659 12.0402 59.7644 12.0455 59.8174 12.0481C59.8921 12.2862 59.98 12.5201 60.089 12.746C60.191 12.5183 60.2578 12.2756 60.3703 12.0542C60.4195 12.0472 60.518 12.0323 60.567 12.0252C60.5398 12.3487 60.6514 12.7065 60.4766 13.001C60.445 12.7144 60.4582 12.426 60.4396 12.1385C60.3059 12.4067 60.2428 12.7082 60.0679 12.9562C59.9342 12.7013 59.8771 12.4111 59.7171 12.1705C59.7067 12.4271 59.7119 12.6847 59.7084 12.9421L59.6143 12.9314C59.6142 12.6336 59.6098 12.3355 59.6071 12.0375Z" fill="white"/>
</svg>
