<svg width="26" height="22" viewBox="0 0 26 22" fill="none" xmlns="http://www.w3.org/2000/svg">
<path d="M0 0.631904V9.52854C0 9.81142 0.0908301 10.0863 0.25823 10.3103L7.99769 20.6668C8.23236 20.981 8.59506 21.165 8.97946 21.165H16.0921C16.3525 21.165 16.497 20.8537 16.3336 20.6441L0.55149 0.430944C0.36797 0.196064 0 0.330144 0 0.631904Z" fill="#F15B6C"/>
<path d="M14.5925 13.8049H21.4221C21.7941 13.8049 22.1463 13.6324 22.3819 13.3355L24.5196 10.6385C24.701 10.4097 24.7999 10.1236 24.7999 9.82794V0.641383C24.7999 0.338343 24.4301 0.205223 24.2472 0.442023L14.3501 13.2855C14.1883 13.4955 14.333 13.8049 14.5925 13.8049Z" fill="#F15B6C"/>
</svg>
