<svg width="26" height="27" viewBox="0 0 26 27" fill="none" xmlns="http://www.w3.org/2000/svg">
<path d="M18.0701 15.29C16.8809 15.29 16.4885 16.1946 16.3691 16.6146H19.5441C19.5143 16.3814 19.4211 15.9715 19.1244 15.6727C18.8717 15.4192 18.518 15.29 18.0701 15.29Z" fill="#6F67F0"/>
<path d="M9.90874 16.9795C9.90765 16.9795 9.90765 16.9795 9.90765 16.9795H6.90137V19.5426H9.74444C10.2515 19.5299 10.8796 19.3667 10.8796 18.3015C10.8796 17.0165 10.0081 16.9795 9.90874 16.9795Z" fill="#6F67F0"/>
<path d="M23.4631 0H2.42744C1.28463 0 0.318436 0.75547 0 1.79383V24.319C0.268749 25.1964 0.999919 25.8713 1.90953 26.0599H23.9806C24.8649 25.8767 25.5786 25.2326 25.8651 24.3908V1.72202C25.5246 0.721015 24.5791 0 23.4631 0ZM15.5686 11.0165C15.5686 10.916 15.6505 10.8344 15.7506 10.8344H20.2715C20.3708 10.8344 20.4532 10.916 20.4532 11.0165V12.3661C20.4532 12.4665 20.3705 12.5478 20.2715 12.5478H15.7506C15.6505 12.5478 15.5686 12.4665 15.5686 12.3661V11.0165ZM13.6485 18.5019C13.6485 20.2247 12.7371 21.0556 11.9711 21.4469C11.1366 21.8745 10.2716 21.9079 10.0257 21.9079H4.28692C4.18754 21.9079 4.10485 21.8256 4.10485 21.7255V10.7706C4.10485 10.6701 4.18754 10.5882 4.28692 10.5882H9.98867C12.0124 10.5882 13.2699 11.7756 13.2699 13.688C13.2699 14.8726 12.6928 15.4409 12.1851 15.7115C12.4698 15.8119 12.7182 15.9722 12.9253 16.1935C13.721 17.0349 13.6529 18.4421 13.6485 18.5019ZM22.1005 18.3369C22.0896 18.4276 22.012 18.4954 21.9202 18.4954H16.4317C16.4713 19.0971 16.7096 19.5312 17.1401 19.7877C17.5209 20.0136 17.942 20.0383 18.1037 20.0383C18.1374 20.0383 18.1585 20.0368 18.161 20.0361C18.791 20.0361 19.2382 19.8972 19.5019 19.623C19.7546 19.3597 19.7478 19.0619 19.7459 19.0492C19.7459 18.9992 19.7626 18.9509 19.7982 18.9147C19.8319 18.8791 19.879 18.8585 19.9295 18.8585H21.8564C21.9572 18.8585 22.0392 18.9401 22.0392 19.0409C22.0392 21.9899 18.89 22.1393 18.2568 22.1393C18.1556 22.1393 18.0979 22.1357 18.0979 22.1357C18.0979 22.1357 18.0972 22.1357 18.0961 22.1357C16.6744 22.1357 15.562 21.7211 14.7989 20.9044C13.6032 19.6226 13.7123 17.8295 13.7178 17.7541C13.7178 17.7218 13.7229 16.6591 14.26 15.5809C14.7645 14.5752 15.8384 13.3754 18.1088 13.3754C19.4097 13.3754 20.4227 13.7751 21.1143 14.5628C22.387 16.0139 22.115 18.2426 22.1005 18.3369Z" fill="#6F67F0"/>
<path d="M10.4992 13.8033C10.4992 12.8571 9.93159 12.8462 9.90801 12.8462H9.49637H6.90137V14.9258H9.70926C10.1267 14.9258 10.4992 14.8402 10.4992 13.8033Z" fill="#6F67F0"/>
</svg>
