<svg width="27" height="27" viewBox="0 0 27 27" fill="none" xmlns="http://www.w3.org/2000/svg">
<path fill-rule="evenodd" clip-rule="evenodd" d="M13.4993 0C6.04419 0 0 6.04454 0 13.5007C0 19.4653 3.86723 24.5254 9.23227 26.3094C9.90796 26.4344 10.1537 26.0187 10.1537 25.6597C10.1537 25.3399 10.142 24.4914 10.1361 23.3637C6.38065 24.1802 5.58831 21.5536 5.58831 21.5536C4.97423 19.9942 4.08912 19.5795 4.08912 19.5795C2.86338 18.7425 4.18223 18.7588 4.18223 18.7588C5.53708 18.8547 6.25015 20.1496 6.25015 20.1496C7.45408 22.2127 9.41019 21.6156 10.179 21.2722C10.3012 20.3982 10.6508 19.8045 11.0361 19.4663C8.03873 19.1257 4.88735 17.9675 4.88735 12.7945C4.88735 11.3203 5.41315 10.115 6.27646 9.171C6.13835 8.83108 5.67415 7.45858 6.40904 5.59904C6.40904 5.59904 7.54235 5.23627 10.1219 6.984C11.1981 6.68319 12.3532 6.53296 13.5014 6.52846C14.6478 6.53331 15.8033 6.68319 16.8809 6.984C19.4587 5.23627 20.5903 5.59904 20.5903 5.59904C21.3269 7.45858 20.863 8.83108 20.7246 9.171C21.59 10.115 22.112 11.3203 22.112 12.7945C22.112 17.9796 18.9561 19.1219 15.9487 19.4549C16.4326 19.872 16.8646 20.6976 16.8646 21.9572C16.8646 23.761 16.8483 25.2166 16.8483 25.6593C16.8483 26.0211 17.091 26.4417 17.7764 26.3077C23.1355 24.5198 27 19.4635 27 13.5007C27 6.04454 20.9558 0 13.4993 0Z" fill="#6F67F0"/>
</svg>
