<svg width="28" height="23" viewBox="0 0 28 23" fill="none" xmlns="http://www.w3.org/2000/svg">
<path d="M28 2.69371C26.9699 3.15042 25.863 3.45914 24.7009 3.59768C25.8866 2.8868 26.7979 1.76102 27.2262 0.420347C26.1164 1.0785 24.8867 1.55703 23.5787 1.81375C22.5311 0.698155 21.0381 0 19.3858 0C16.2135 0 13.6413 2.57154 13.6413 5.7445C13.6413 6.1943 13.6922 6.6332 13.7904 7.05391C9.01601 6.81428 4.78345 4.5271 1.95011 1.05123C1.45558 1.89993 1.17232 2.88716 1.17232 3.93948C1.17232 5.9325 2.18646 7.69025 3.72786 8.72075C2.78644 8.69057 1.90065 8.43204 1.12614 8.00223C1.12541 8.02623 1.12541 8.04987 1.12541 8.07459C1.12541 10.857 3.10533 13.1788 5.73287 13.7071C5.25107 13.8376 4.74382 13.9082 4.21984 13.9082C3.8493 13.9082 3.48968 13.8726 3.13879 13.8053C3.86967 16.087 5.99104 17.7484 8.50476 17.7949C6.53866 19.3352 4.06202 20.2541 1.37049 20.2541C0.906874 20.2541 0.449801 20.2272 0 20.1738C2.54208 21.8035 5.5616 22.754 8.80548 22.754C19.3716 22.754 25.1496 14.0013 25.1496 6.41102C25.1496 6.16231 25.1437 5.91395 25.1328 5.66705C26.2561 4.85763 27.2302 3.84567 28 2.69371V2.69371Z" fill="#6F67F0"/>
</svg>
